<svg xmlns="http://www.w3.org/2000/svg" width="192" height="192" fill="none" viewBox="0 0 192 192"><g stroke-linecap="round" stroke-linejoin="round" stroke-miterlimit="1.5" clip-path="url(#E_7XOhLIpRa)"><path fill="#f84303" fill-rule="evenodd" stroke="#f84303" d="M36.482 23.071c13.99-.388 112.462.13 121.129.741 6.68.471 11.977 5.52 12.286 18.54.059 2.466.032 12.99-.039 26.648H25.384c.015-16.374.054-28.502.016-29.572-.25-7.076 1.624-16.094 11.082-16.357m59.281 6.002c-4.77-.087-7.375 4.084-7.435 8.291-.06 4.206 2.425 8.448 7.84 8.504 11.031.114 12.325-16.563-.405-16.795m30.071-.113c-4.77-.087-7.377 4.084-7.437 8.29-.06 4.207 2.427 8.449 7.84 8.505 11.032.114 12.326-16.563-.403-16.795m-60.9-.164c-4.77-.087-7.375 4.084-7.435 8.29-.06 4.207 2.426 8.449 7.84 8.505 11.031.114 12.325-16.563-.405-16.795" clip-rule="evenodd"/><path fill="#f84303" stroke="#f84303" d="M36.575 170.567c-7.52-.645-10.399-9.45-10.616-17.185v-.372h143.216c-.222 9.049-1.87 16.619-13.694 17.416-12.904.87-113.343.618-118.906.141"/><path fill="#f5e4e2" fill-rule="evenodd" stroke="#f5e4e2" d="M25.387 65.774c-.029 26.75-.248 66.717.329 87.301.023.795.315 1.908.396 2.716.003.028 142.875.719 142.877.747.101-1.141.156-2.321.186-3.528.131-5.345.682-56.4.7-87.443.001-1.434-141.603.12-144.488.207" clip-rule="evenodd"/><path fill="#fcb4cd" fill-rule="evenodd" stroke="#17171c" stroke-width="3" d="M97.477 145.914c-8.808-13.932-31.127-44.184-25.004-59.911 2.153-5.53 11.342-9.881 18.359-5.207 3.649 2.43 7.144 12.495 7.213 12.262 2.112-7.186 3.366-12.618 9.24-14.026 15.893-3.808 16.314 10.85 16.314 14.121 0 13.626-26.413 52.979-26.122 52.761" clip-rule="evenodd"/><path stroke="#17171c" stroke-width="2" d="M67.694 121.519c-4.335-7.755-18.12-38.127-3.966-48.098"/><path stroke="#17171c" stroke-width="1.9959" d="M26.807 156.515c4.951.3 129.918.164 141.404-.383"/><path stroke="#17171c" stroke-width="1.9984" d="M169.582 65.255c-9.728.22-131.105-.444-143.485-.199"/><path fill="#faa709" fill-rule="evenodd" stroke="#17171c" stroke-width="2.0004" d="M61.943 15.786c-.898 3.265-3.046 10.586.02 18.149 2.155 5.317 6.43 4.349 7.35-1.298.933-5.732 2.476-15.751 2.355-16.878-.4-3.685-9.063-2.381-9.725.027m30.605-.006c-.898 3.265-3.046 10.585.02 18.149 2.155 5.317 6.43 4.349 7.35-1.298.933-5.732 2.476-15.752 2.355-16.878-.399-3.685-9.063-2.382-9.725.026m30.338-.078c-.898 3.266-3.046 10.586.02 18.15 2.155 5.316 6.43 4.348 7.35-1.299.933-5.731 2.477-15.75 2.355-16.877-.399-3.686-9.062-2.382-9.725.026" clip-rule="evenodd"/><path stroke="#17171c" stroke-width="2.0004" d="M36.035 148.339c-.046-11.856-.022-33.404-.063-39.7m123.684 2.947c-.082-6.606.216-27.603.145-34.322"/></g><defs><clipPath id="E_7XOhLIpRa"><path fill="#fff" d="M0 0h192v192H0z"/></clipPath></defs></svg>