<svg width="1102" height="214" viewBox="0 0 1102 214" fill="none" xmlns="http://www.w3.org/2000/svg">
<path d="M52.5 167.25C36.8333 167.25 24.25 162.5 14.75 153C5.41667 143.5 0.75 130.667 0.75 114.5C0.75 98.1667 6.08333 84.1667 16.75 72.5C27.5833 60.6667 41.5833 54.75 58.75 54.75C64.5833 54.75 70.8333 55.5833 77.5 57.25C84.3333 58.9167 87.8333 60.8333 88 63C88.3333 67 88.5 71.8333 88.5 77.5C88.5 83 87.5833 85.75 85.75 85.75C84.0833 85.75 82.5833 84.6667 81.25 82.5C78.4167 77.6667 73 73.5 65 70C57.1667 66.3333 50.25 64.5 44.25 64.5C40.9167 64.5 37.6667 65.75 34.5 68.25C31.3333 70.75 28.75 73.5 26.75 76.5C21.9167 83.5 19.5 93.4167 19.5 106.25C19.5 119.083 23.5833 130.333 31.75 140C40.0833 149.5 50.25 154.25 62.25 154.25C68.0833 154.25 73.5 153.167 78.5 151C83.5 148.833 87.3333 146.667 90 144.5C92.8333 142.333 94.5833 141.25 95.25 141.25C97.0833 141.25 98 142.083 98 143.75C98 145.417 96.25 148 92.75 151.5C89.25 154.833 85.8333 157.5 82.5 159.5C74.3333 164.667 64.3333 167.25 52.5 167.25Z" fill="#EFE8E3"/>
<path d="M151.787 165.75C132.12 165.75 122.287 157.417 122.287 140.75C122.287 128.75 127.287 120.5 137.287 116C145.62 112.5 158.37 109.333 175.537 106.5C176.037 106.333 176.704 106.25 177.537 106.25C178.37 106.083 179.204 105.917 180.037 105.75C181.037 105.583 181.787 105.417 182.287 105.25C183.454 104.75 184.037 103.583 184.037 101.75L184.537 88.75C184.537 79.25 181.787 72.4167 176.287 68.25C170.787 63.9167 165.454 61.75 160.287 61.75C148.287 61.75 142.287 66.75 142.287 76.75L143.287 85.75C143.287 89.0833 141.787 90.75 138.787 90.75C136.454 90.75 133.87 90.3333 131.037 89.5C125.87 87.8333 123.287 85 123.287 81C123.287 74.5 127.62 68.3333 136.287 62.5C145.12 56.5 153.954 53.5 162.787 53.5C171.62 53.5 178.537 54.3333 183.537 56C188.537 57.6667 192.204 59.5833 194.537 61.75C197.037 63.75 198.954 66.5 200.287 70C201.954 74.1667 202.787 80.75 202.787 89.75C202.787 98.5833 202.537 106.5 202.037 113.5C201.704 120.333 201.537 126.583 201.537 132.25C201.537 137.917 202.204 142.583 203.537 146.25C204.87 149.75 206.454 152 208.287 153C210.12 154 211.954 154.583 213.787 154.75C218.287 155.083 220.537 156.417 220.537 158.75C220.537 162.25 215.287 164 204.787 164C200.454 164 196.704 162.833 193.537 160.5C190.537 158.167 188.37 155.917 187.037 153.75C185.704 151.417 184.954 150.25 184.787 150.25C184.62 150.25 183.954 150.833 182.787 152C181.62 153 179.954 154.25 177.787 155.75C175.787 157.25 173.454 158.75 170.787 160.25C164.62 163.917 158.287 165.75 151.787 165.75ZM182.287 110L179.787 110.5C175.954 111.167 173.537 111.583 172.537 111.75C171.537 111.917 169.204 112.417 165.537 113.25C161.87 114.083 159.287 114.833 157.787 115.5C156.454 116.167 154.454 117.25 151.787 118.75C149.287 120.083 147.454 121.5 146.287 123C143.287 127.667 141.787 132.583 141.787 137.75C141.787 142.917 143.454 147.25 146.787 150.75C150.12 154.083 154.37 155.75 159.537 155.75C164.87 155.75 169.037 155.083 172.037 153.75C175.204 152.417 177.537 150.917 179.037 149.25C180.537 147.583 181.704 145.333 182.537 142.5C183.537 139.333 184.037 135.25 184.037 130.25V112.25C184.037 110.75 183.454 110 182.287 110Z" fill="#EFE8E3"/>
<path d="M245.08 69.25L240.33 69.5C237.497 69.5 236.08 68.3333 236.08 66C236.08 64.3333 236.83 62.9167 238.33 61.75C244.663 57.5833 250.997 51.3333 257.33 43C259.997 39.1667 262.08 36.4167 263.58 34.75C265.247 32.9167 266.913 32 268.58 32C270.247 32 271.08 33.9167 271.08 37.75C271.08 37.75 270.747 42.5 270.08 52C270.08 54.3333 270.497 55.75 271.33 56.25C272.33 56.75 275.33 57 280.33 57H289.08C296.58 57 301.163 56.5833 302.83 55.75C305.83 54.25 307.663 53.5 308.33 53.5C309.997 53.5 310.83 54.4167 310.83 56.25C310.83 57.5833 309.747 60.25 307.58 64.25C305.413 68.0833 303.83 70 302.83 70C295.33 70 290.08 69.8333 287.08 69.5C284.08 69.1667 282.08 69 281.08 69C280.08 68.8333 279.163 68.75 278.33 68.75C277.663 68.5833 277.163 68.5 276.83 68.5L276.33 68.25C273.163 68.25 271.08 68.75 270.08 69.75C269.247 70.75 268.83 73 268.83 76.5L267.83 123C267.83 133.833 269.163 141.417 271.83 145.75C274.663 149.917 280.497 152 289.33 152C292.83 152 296.663 151.25 300.83 149.75C305.163 148.083 307.497 147.25 307.83 147.25C309.497 147.25 310.33 148.333 310.33 150.5C310.33 152.667 307.413 155.583 301.58 159.25C295.913 162.75 289.747 164.5 283.08 164.5C260.58 164.5 249.33 154.75 249.33 135.25V131.5L250.33 73.25C250.33 71.5833 249.997 70.5 249.33 70C248.663 69.5 247.247 69.25 245.08 69.25Z" fill="#EFE8E3"/>
<path d="M383.529 166.75C368.863 166.75 356.363 162.25 346.029 153.25C335.863 144.25 330.779 131.25 330.779 114.25C330.779 97.0833 335.446 82.75 344.779 71.25C354.279 59.75 366.529 54 381.529 54C388.529 54 394.863 55.25 400.529 57.75C406.363 60.25 410.863 63.3333 414.029 67C417.196 70.5 419.863 74.25 422.029 78.25C425.696 85.0833 427.529 90.25 427.529 93.75C427.529 96.75 424.113 98.25 417.279 98.25H353.029C351.696 98.25 350.863 98.4167 350.529 98.75C350.363 98.9167 350.279 99.6667 350.279 101C350.279 116.667 354.446 129 362.779 138C371.279 147 381.196 151.5 392.529 151.5C399.529 151.5 406.613 149.667 413.779 146C421.113 142.167 424.946 140.25 425.279 140.25C426.946 140.25 427.779 141 427.779 142.5C427.779 144.5 425.946 147.25 422.279 150.75C418.613 154.083 415.113 156.833 411.779 159C403.779 164.167 394.363 166.75 383.529 166.75ZM355.029 92.25L399.029 90.75C401.363 90.75 402.779 90.5833 403.279 90.25C403.946 89.75 404.279 88.9167 404.279 87.75C404.279 82.75 401.946 76.9167 397.279 70.25C392.613 63.5833 386.113 60.25 377.779 60.25C369.446 60.25 363.029 63.5833 358.529 70.25C354.029 76.75 351.779 82.9167 351.779 88.75C351.779 91.0833 352.863 92.25 355.029 92.25Z" fill="#EFE8E3"/>
<path d="M478.984 211.5C472.484 210.167 466.568 207.333 461.234 203C456.068 198.667 453.484 193.667 453.484 188C453.484 182.333 454.984 177.917 457.984 174.75C460.984 171.75 463.984 169.5 466.984 168C469.984 166.5 471.484 165.5 471.484 165C471.484 164.667 471.068 164.167 470.234 163.5C469.401 162.833 468.401 162.083 467.234 161.25C464.568 159.083 463.234 155.5 463.234 150.5C463.234 145.333 464.318 140.917 466.484 137.25C468.651 133.583 470.818 130.833 472.984 129C475.151 127.167 476.234 126 476.234 125.5C476.234 124.833 475.318 123.75 473.484 122.25C471.818 120.75 469.901 119.083 467.734 117.25C465.568 115.25 463.568 112.083 461.734 107.75C460.068 103.25 459.234 98.5833 459.234 93.75C459.234 88.75 459.818 84.3333 460.984 80.5C462.318 76.5 464.401 72.4167 467.234 68.25C470.234 63.9167 474.734 60.4167 480.734 57.75C486.901 55.0833 493.651 53.75 500.984 53.75C508.484 53.75 514.568 54.5833 519.234 56.25C523.901 57.9167 527.318 59.5833 529.484 61.25C531.818 62.9167 533.484 63.75 534.484 63.75C535.484 63.75 539.568 62.25 546.734 59.25C549.068 58.25 550.818 56 551.984 52.5C553.151 49 554.401 47.25 555.734 47.25C557.901 47.25 558.984 47.9167 558.984 49.25C558.984 53.25 558.401 57.5833 557.234 62.25C556.068 66.75 554.651 70.3333 552.984 73C551.318 75.5 548.068 77.75 543.234 79.75C545.068 84.75 545.984 88.9167 545.984 92.25C545.984 102.917 541.984 111.917 533.984 119.25C525.984 126.583 516.234 130.25 504.734 130.25C500.401 130.25 496.234 129.917 492.234 129.25C488.401 128.417 486.068 128 485.234 128C484.568 128 483.568 128.167 482.234 128.5C480.901 128.833 479.234 130 477.234 132C475.234 134 474.234 136.75 474.234 140.25C474.234 145.917 476.818 149.5 481.984 151C487.151 152.5 495.734 153.25 507.734 153.25H519.234C543.401 153.25 555.484 160.583 555.484 175.25C555.484 180.417 554.901 184.333 553.734 187C550.568 195.167 544.068 201.667 534.234 206.5C524.401 211.333 512.984 213.75 499.984 213.75C492.484 213.75 485.484 213 478.984 211.5ZM467.984 184.75C467.984 192.083 471.068 197.583 477.234 201.25C483.401 205.083 491.318 207 500.984 207C510.651 207 519.568 204.833 527.734 200.5C536.068 196.333 540.234 190.917 540.234 184.25C540.234 178.25 537.318 174.5 531.484 173C526.984 172 520.651 171.5 512.484 171.5H510.234C504.901 171.5 498.401 170.917 490.734 169.75L479.484 168C477.818 168 475.484 169.667 472.484 173C469.484 176.333 467.984 180.25 467.984 184.75ZM501.734 59.25C494.734 59.25 489.068 61.9167 484.734 67.25C480.401 72.4167 478.234 79.9167 478.234 89.75C478.234 99.5833 480.568 107.833 485.234 114.5C490.068 121.167 496.151 124.5 503.484 124.5C510.818 124.5 516.484 121.667 520.484 116C524.484 110.167 526.484 102.833 526.484 94C526.484 85.1667 524.151 77.1667 519.484 70C514.818 62.8333 508.901 59.25 501.734 59.25Z" fill="#EFE8E3"/>
<path d="M636.334 166.5C619.334 166.5 605.751 161.083 595.584 150.25C585.584 139.25 580.584 126.167 580.584 111C580.584 95.8333 585.751 82.5833 596.084 71.25C606.584 59.9167 620.334 54.25 637.334 54.25C654.501 54.25 668.834 59.1667 680.334 69C692.001 78.8333 697.834 92.5 697.834 110C697.834 127.5 691.834 141.333 679.834 151.5C668.001 161.5 653.501 166.5 636.334 166.5ZM633.584 61C624.917 61 617.167 64.4167 610.334 71.25C603.667 78.0833 600.334 89.3333 600.334 105C600.334 120.667 604.917 133.583 614.084 143.75C623.251 153.917 633.084 159 643.584 159C654.251 159 662.834 155.417 669.334 148.25C675.834 140.917 679.084 130.25 679.084 116.25C679.084 102.25 675.084 89.5833 667.084 78.25C659.084 66.75 647.917 61 633.584 61Z" fill="#EFE8E3"/>
<path d="M726.803 71.25L724.053 71C720.886 71 719.303 69.6667 719.303 67C719.303 65.1667 720.386 63.8333 722.553 63C724.886 62 729.053 60.5833 735.053 58.75C741.219 56.75 746.053 55 749.553 53.5C753.053 51.8333 755.136 51 755.803 51C757.969 51 759.053 52.6667 759.053 56L758.803 62.75C758.803 68.75 758.969 72.0833 759.303 72.75C759.803 73.25 760.219 73.5 760.553 73.5C761.053 73.5 762.386 71.8333 764.553 68.5C766.719 65.1667 769.803 61.8333 773.803 58.5C777.803 55 781.719 53.25 785.553 53.25C789.553 53.25 793.636 54.6667 797.803 57.5C801.969 60.1667 804.053 62.9167 804.053 65.75C804.053 68.4167 803.386 70.9167 802.053 73.25C799.719 77.25 797.553 79.25 795.553 79.25C794.219 79.25 791.803 78.25 788.303 76.25C784.969 74.25 781.053 73.25 776.553 73.25C772.053 73.25 767.803 75.0833 763.803 78.75C759.969 82.4167 758.053 85.75 758.053 88.75V114.75L758.303 136.5L758.553 141C758.553 144.5 759.719 147.5 762.053 150C764.386 152.5 766.553 153.917 768.553 154.25C770.719 154.583 772.553 154.833 774.053 155C775.553 155.167 776.719 155.333 777.553 155.5C778.386 155.5 779.303 155.667 780.303 156C782.136 156.333 783.053 157.583 783.053 159.75C783.053 161.75 782.053 162.75 780.053 162.75L758.803 161.5L732.803 162.75C729.803 162.75 728.136 162.417 727.803 161.75C727.469 161.083 727.303 160.417 727.303 159.75C727.303 157.583 728.386 156.167 730.553 155.5C734.886 154.5 737.469 152.417 738.303 149.25C739.303 145.917 739.803 138.917 739.803 128.25L739.553 88L739.303 80.5C739.303 78.6667 739.053 77.1667 738.553 76C737.219 72.8333 733.303 71.25 726.803 71.25Z" fill="#EFE8E3"/>
<path d="M853.553 163L835.803 163.5C829.136 163.5 825.803 162.417 825.803 160.25C825.803 157.917 827.053 156.333 829.553 155.5C829.719 155.5 830.053 155.417 830.553 155.25C834.386 153.917 836.886 151.917 838.053 149.25C839.219 146.583 839.803 133.667 839.803 110.5V88.5C839.803 83.6667 839.219 79.8333 838.053 77C836.886 74.1667 835.803 72.4167 834.803 71.75C833.803 71.0833 832.053 70.5833 829.553 70.25C827.219 69.75 825.469 69.3333 824.303 69C823.303 68.5 822.803 67.8333 822.803 67C822.803 66 822.969 65.25 823.303 64.75C823.803 64.25 824.636 63.75 825.803 63.25C827.136 62.5833 828.469 62 829.803 61.5C834.469 60.1667 838.303 58.8333 841.303 57.5C844.303 56.1667 846.553 55.1667 848.053 54.5C849.719 53.8333 850.803 53.3333 851.303 53C852.469 52.5 853.886 52.25 855.553 52.25C858.053 52.25 859.303 53.8333 859.303 57L857.803 69V137.5C857.803 142.5 858.553 146.417 860.053 149.25C861.719 152.083 863.386 153.833 865.053 154.5C866.886 155.167 868.969 155.583 871.303 155.75C873.636 155.917 875.136 156 875.803 156C878.136 156.333 879.303 157.5 879.303 159.5C879.303 162.333 877.886 163.75 875.053 163.75L871.303 163.5L853.553 163ZM849.303 28.75C845.969 28.75 843.053 27 840.553 23.5C838.219 20 837.053 17.1667 837.053 15C837.053 12.6667 838.469 9.75 841.303 6.25C844.303 2.58333 847.053 0.75 849.553 0.75C852.219 0.75 854.803 2.5 857.303 6.00001C859.803 9.33334 861.053 12.3333 861.053 15C861.053 17.6667 859.469 20.6667 856.303 24C853.136 27.1667 850.803 28.75 849.303 28.75Z" fill="#EFE8E3"/>
<path d="M952.377 166.75C937.71 166.75 925.21 162.25 914.877 153.25C904.71 144.25 899.627 131.25 899.627 114.25C899.627 97.0833 904.294 82.75 913.627 71.25C923.127 59.75 935.377 54 950.377 54C957.377 54 963.71 55.25 969.377 57.75C975.21 60.25 979.71 63.3333 982.877 67C986.044 70.5 988.71 74.25 990.877 78.25C994.544 85.0833 996.377 90.25 996.377 93.75C996.377 96.75 992.96 98.25 986.127 98.25H921.877C920.544 98.25 919.71 98.4167 919.377 98.75C919.21 98.9167 919.127 99.6667 919.127 101C919.127 116.667 923.294 129 931.627 138C940.127 147 950.044 151.5 961.377 151.5C968.377 151.5 975.46 149.667 982.627 146C989.96 142.167 993.794 140.25 994.127 140.25C995.794 140.25 996.627 141 996.627 142.5C996.627 144.5 994.794 147.25 991.127 150.75C987.46 154.083 983.96 156.833 980.627 159C972.627 164.167 963.21 166.75 952.377 166.75ZM923.877 92.25L967.877 90.75C970.21 90.75 971.627 90.5833 972.127 90.25C972.794 89.75 973.127 88.9167 973.127 87.75C973.127 82.75 970.794 76.9167 966.127 70.25C961.46 63.5833 954.96 60.25 946.627 60.25C938.294 60.25 931.877 63.5833 927.377 70.25C922.877 76.75 920.627 82.9167 920.627 88.75C920.627 91.0833 921.71 92.25 923.877 92.25Z" fill="#EFE8E3"/>
<path d="M1094.58 61.75L1095.58 76.75C1095.58 79.5833 1095.25 81.5 1094.58 82.5C1093.92 83.5 1092.92 84 1091.58 84C1090.42 84 1089.08 82.8333 1087.58 80.5C1086.25 78 1084.67 75.3333 1082.83 72.5C1081.17 69.6667 1078.33 67.0833 1074.33 64.75C1070.5 62.25 1066.08 61 1061.08 61C1056.08 61 1052 62.25 1048.83 64.75C1045.67 67.0833 1044.08 69.6667 1044.08 72.5C1044.08 75.3333 1044.33 77.6667 1044.83 79.5C1045.33 81.1667 1046.17 82.6667 1047.33 84C1048.67 85.3333 1049.75 86.5 1050.58 87.5C1051.58 88.3333 1053.17 89.25 1055.33 90.25C1057.5 91.25 1059.08 92 1060.08 92.5C1061.25 92.8333 1063.08 93.5 1065.58 94.5C1080.75 99.8333 1090.5 105.083 1094.83 110.25C1099.17 115.25 1101.33 122.5 1101.33 132C1101.33 141.5 1096.92 150.25 1088.08 158.25C1082.08 163.417 1073.83 166 1063.33 166C1056.17 166 1048.17 164.25 1039.33 160.75C1036.83 159.75 1035.33 159.25 1034.83 159.25C1034.5 159.083 1033.83 158.833 1032.83 158.5C1032 158.167 1031.33 158 1030.83 158C1030.5 157.833 1030 157.583 1029.33 157.25C1028.67 156.917 1028.17 156.667 1027.83 156.5C1027.67 156.167 1027.42 155.75 1027.08 155.25C1026.58 154.417 1026.33 153.083 1026.33 151.25V129.5C1026.33 127.667 1026.67 126.167 1027.33 125C1028.17 123.667 1029.25 123 1030.58 123C1031.92 123 1032.83 123.417 1033.33 124.25C1034 124.917 1034.58 126.417 1035.08 128.75C1035.58 131.083 1036.08 132.75 1036.58 133.75C1042.75 149.083 1051.42 156.75 1062.58 156.75C1067.75 156.75 1072.67 155.417 1077.33 152.75C1082 149.917 1084.33 145.583 1084.33 139.75C1084.33 133.75 1082.42 128.917 1078.58 125.25C1074.75 121.583 1070.08 118.75 1064.58 116.75C1059.08 114.583 1053.58 112.417 1048.08 110.25C1042.58 107.917 1037.92 104.583 1034.08 100.25C1030.25 95.75 1028.33 90.1667 1028.33 83.5C1028.33 74.1667 1032.08 66.6667 1039.58 61C1047.08 55.3333 1055.33 52.5 1064.33 52.5C1073.33 52.5 1080.17 53.25 1084.83 54.75C1089.5 56.0833 1092.25 57.3333 1093.08 58.5C1094.08 59.6667 1094.58 60.75 1094.58 61.75Z" fill="#EFE8E3"/>
</svg>
