<svg xmlns="http://www.w3.org/2000/svg" width="192" height="192" fill="none" viewBox="0 0 192 192"><g stroke-linecap="round" stroke-linejoin="round" stroke-miterlimit="1.5" clip-path="url(#nuZ7Vbx2oha)"><path fill="#f84303" fill-rule="evenodd" stroke="#f84303" d="M103.337 22.018c-4.096-.496-12.715-.281-14.135-.129-65.62 7.035-88.675 90.734-37.327 132.288 15.394 12.459 36.469 17.59 55.664 14.737 35.774-5.315 67.918-36.251 62.901-80.147-5.941-51.979-45.845-64.175-67.103-66.749M91.476 37.041c-55.097 5.043-73.006 72.074-31.004 106.065 12.326 9.976 29.2 14.084 44.571 11.801 28.645-4.257 54.384-29.028 50.366-64.176-4.95-43.309-39.346-52.127-55.725-53.662-2.395-.224-6.732-.03-8.208-.028" clip-rule="evenodd"/><path fill="#f5e4e2" fill-rule="evenodd" stroke="#17171c" stroke-width="2.0018" d="M91.476 37.04c-55.097 5.044-73.007 72.075-31.004 106.066 12.326 9.976 29.201 14.085 44.571 11.8 28.645-4.256 54.383-29.027 50.366-64.175-4.95-43.309-39.346-52.127-55.726-53.661-2.394-.225-6.732-.032-8.207-.03" clip-rule="evenodd"/><path stroke="#17171c" stroke-width="2.0013" d="M175.748 132.93c20.111-47.81-4.079-87.182-17.338-98.338M20.61 137.167c5.498 10.074 13.184 19.467 23.202 27.573 11.353 9.189 25.346 14.971 39.764 17.157"/><path stroke="#17171c" stroke-width="2" d="M96.242 37.464c.076 2.806.089 6.888.114 9.826m-.006 107.503c.01-3.232.025-7.964.025-9.587m48.439-49.084c1.394-.044 8.246.109 10.465.048m-117.521-.115 8.441.001"/><path stroke="#17171c" stroke-width="3.0002" d="M96.237 97.228c-6.269-6.48-13.2-16.437-19.82-24.336"/><path stroke="#17171c" stroke-width="3" d="M114.732 85.985c-4.381 2.609-13.81 8.441-18.493 11.243"/><path stroke="#17171c" stroke-width="2" d="M67.501 12.851c-28.817 9.111-48.808 35.341-54.419 55.62"/></g><defs><clipPath id="nuZ7Vbx2oha"><path fill="#fff" d="M0 0h192v192H0z"/></clipPath></defs></svg>