<svg xmlns="http://www.w3.org/2000/svg" width="192" height="192" fill="none" viewBox="0 0 192 192"><g stroke-linecap="round" stroke-linejoin="round" stroke-miterlimit="1.5" clip-path="url(#eA0D5osM8aa)"><path fill="#a1ccfa" fill-rule="evenodd" stroke="#a1ccfa" stroke-width="4.4969" d="M61.183 155.47c13.58-.006 91.522.195 93.054.245 14.147.456 28.031-8.819 28.989-27.346 1.346-26.015-21.887-33.815-21.86-33.857 14.378-22.039-3.662-66.12-45.41-66.626-46.286-.56-55.807 32.923-55.918 32.923-35.082.286-51.033 24.764-50.743 51.56.226 20.72 21.273 43.114 51.888 43.101" clip-rule="evenodd"/><path stroke="#17171c" stroke-width="3" d="M120.465 38.387c15.465 1.667 32.235 13.962 31.083 37.783M46.69 167.848c19.943-.015 32.059-.23 51.745-.23m12.635.136c7.988.053 16.71-.054 23.188-.054M95.213 19.538c-18.555 2.334-33.722 13.304-40.4 28.401"/><path stroke="#17171c" stroke-width="3.0002" d="M59.181 60.374c5.522.49 8.595 2.112 11.476 5.1"/><path stroke="#17171c" stroke-width="3" d="M118.098 69.68c-.136 7.61-.338 14.34-.142 14.343 2.292.034 5.564.018 10.643.018m-66.769 38.02c2.673.004 15.601.125 16.131.165.346.026.214 11.094.245 13.963"/><path fill="#c71f16" fill-rule="evenodd" stroke="#17171c" stroke-width="4.5019" d="M108.757 68.973c-6.148-.932-21.607-1.065-21.727.567-.437 5.971 1.13 23.27-.502 23.377-5.287.349-22.252-1.254-22.362.164-.287 3.722-.961 17.323.297 20.198.454 1.042 21.447-.117 22.547.435 1.448.724-.8 22.47 1.07 22.666 5.328.557 16.97.156 21.303-.038.769-.036.048-17.321.262-21.618.103-2.078 21.538-.16 21.654-1.188.349-3.061-.197-18.516-.889-19.51-1.147-1.644-21.016.627-21.315-.875-.381-1.912 1.296-23.93-.338-24.178" clip-rule="evenodd"/></g><defs><clipPath id="eA0D5osM8aa"><path fill="#fff" d="M0 0h192v192H0z"/></clipPath></defs></svg>