<svg xmlns="http://www.w3.org/2000/svg" width="192" height="192" fill="none" viewBox="0 0 192 192"><g stroke-linecap="round" stroke-linejoin="round" stroke-miterlimit="1.5" clip-path="url(#ybH7rPrcG1a)"><path fill="#3583ff" fill-rule="evenodd" stroke="#3583ff" stroke-width="1.4974" d="M129.737 40.318c.074-.006-.936-1.425-.835-2.643.24-2.856 1.061-7.227.226-10.61-1.401-5.677-5.831-7.098-5.517-7.065 9.929 1.052 24.684 17.279 25.837 30.932.017.206-1.259-8.705-8.207-9.401-10.599-1.064-10.859-.48-11.504-1.213" clip-rule="evenodd"/><path fill="#a1ccfa" fill-rule="evenodd" stroke="#17171c" stroke-width="4.5" d="M46.318 164.938c-.23-.746-3.255-143.286-3.232-144.1.014-.481 47.196-.547 78.625-.395 11.366.054 5.518 17.43 8.085 19.726 3.262 2.92 19.283-2.568 19.295 11.995.034 41.725-.194 110.938-.261 111.928-.066.975-102.369 1.311-102.512.846" clip-rule="evenodd"/><path stroke="#17171c" stroke-width="3" d="M40.398 176.24c6.424.348 45.348.003 57.483.003m-63.373-28.261c.03.599.397 11.079.609 15.459m-3.068-82.59c.295 4.735 2.218 60.724 2.237 61.171M160.567 20.75c-.071 5.145-.386 80.837-.173 88.719"/><path stroke="#17171c" stroke-width="4.5" d="M65.089 150.397c-.186-.186-1.328-41.788.06-42.55.978-.536 17.999 9.467 18.796 21.571.5 7.6-.552 17.963-18.856 20.979" clip-rule="evenodd"/><path stroke="#17171c" stroke-width="4.5" d="M129.662 109.06c-.879-1.703-3.062-2.123-4.815-1.455-3.342 1.271-6.624 7.428-6.966 22.637-.461 20.605 10.432 23.472 15.219 17.229"/><path stroke="#17171c" stroke-width="4.5" d="M100.395 108.109c-12.94-.389-12.368 42.321-.3 41.997 12.031-.324 12.251-41.638.3-41.997" clip-rule="evenodd"/></g><defs><clipPath id="ybH7rPrcG1a"><path fill="#fff" d="M0 0h192v192H0z"/></clipPath></defs></svg>