<svg xmlns="http://www.w3.org/2000/svg" width="192" height="192" fill="none" viewBox="0 0 192 192"><g stroke-linecap="round" clip-path="url(#RiojDuBti7a)"><path fill="#3583ff" fill-rule="evenodd" stroke="#3583ff" stroke-linejoin="round" stroke-miterlimit="1.5" stroke-width=".9983" d="M129.737 40.318c.074-.006-.936-1.425-.834-2.643.239-2.856 1.06-7.227.225-10.61-1.401-5.677-5.831-7.098-5.517-7.065 9.929 1.052 24.684 17.279 25.837 30.932.017.206-1.259-8.705-8.207-9.401-10.599-1.064-10.859-.48-11.504-1.213" clip-rule="evenodd"/><path fill="#a1ccfa" fill-rule="evenodd" stroke="#17171c" stroke-linejoin="round" stroke-miterlimit="1.5" stroke-width="3" d="M46.318 164.938c-.23-.746-3.255-143.286-3.232-144.1.014-.481 47.196-.547 78.625-.395 11.366.054 5.518 17.43 8.085 19.726 3.262 2.92 19.283-2.568 19.295 11.995.034 41.725-.194 110.938-.261 111.928-.066.975-102.369 1.311-102.512.846" clip-rule="evenodd"/><path stroke="#17171c" stroke-linejoin="round" stroke-miterlimit="1.5" stroke-width="2" d="M40.398 176.239c6.424.348 45.348.003 57.483.003m-63.373-28.26c.03.599.397 11.079.609 15.459m-3.068-82.59c.296 4.735 2.218 60.724 2.237 61.171M160.567 20.749c-.071 5.146-.386 80.838-.173 88.72"/><path stroke="#17171c" stroke-width="3" d="M80.85 107.129s-11.555 27.811-16.553 42.074m1.193-42.074s12.423 27.578 16.553 42.074"/><path stroke="#17171c" stroke-linejoin="round" stroke-miterlimit="1.5" stroke-width="3.0038" d="M90.985 106.495c-.076 7.964.684 24.493 1.479 35.255.838 11.358 11.829 9.539 10.207-4.122m23.633-24.347c-1.957-15.82-23.667-2.025-7.603 11.225 5.154 4.251 10.961 5.163 12.069 15.032 1.248 11.12-19.437 15.14-20.218-1.613"/><path stroke="#17171c" stroke-linejoin="round" stroke-miterlimit="1.5" stroke-width="3" d="M46.318 164.938c-.23-.746-3.255-143.286-3.233-144.1.014-.481 47.196-.547 78.626-.395 11.366.054 5.517 17.43 8.085 19.726 3.262 2.92 19.282-2.568 19.294 11.995.034 41.725-.194 110.938-.26 111.928-.067.975-102.369 1.311-102.512.846" clip-rule="evenodd"/><path stroke="#17171c" stroke-linejoin="round" stroke-miterlimit="1.5" stroke-width="2" d="M40.398 176.239c6.424.348 45.348.003 57.483.003m-63.372-28.26c.029.599.397 11.079.608 15.459M32.049 80.85c.296 4.736 2.219 60.725 2.237 61.172M160.567 20.749c-.071 5.146-.386 80.838-.173 88.72"/><path stroke="#17171c" stroke-linejoin="round" stroke-miterlimit="1.5" stroke-width="1.9966" d="M121.938 19.974c10.18-.836 27.403 17.699 27.581 32.403"/></g><defs><clipPath id="RiojDuBti7a"><path fill="#fff" d="M0 0h192v192H0z"/></clipPath></defs></svg>