<svg xmlns="http://www.w3.org/2000/svg" width="192" height="192" fill="none" viewBox="0 0 192 192"><g clip-path="url(#XtyNlOv4Tha)"><path fill="#f5e4e2" fill-rule="evenodd" stroke="#17171c" stroke-linecap="round" stroke-linejoin="round" stroke-miterlimit="1.5" stroke-width="3" d="M7.674 96.48c0-.304 40.255-48.762 88.566-48.311 48.772.455 87.948 46.777 87.947 47.139-.001.343-36.187 52.786-87.731 52.651-53.17-.139-88.782-51.123-88.782-51.478" clip-rule="evenodd"/><path fill="#3583ff" d="M96.807 138.798c22.221 0 40.236-18.014 40.236-40.236s-18.015-40.237-40.236-40.237c-22.222 0-40.237 18.015-40.237 40.237s18.015 40.236 40.237 40.236"/><path fill="#17171c" stroke="#17171c" stroke-linecap="round" stroke-linejoin="round" stroke-miterlimit="1.5" stroke-width="2.0016" d="M100.677 115.859c13.121 0 23.758-10.637 23.758-23.758s-10.637-23.758-23.758-23.758S76.919 78.98 76.919 92.101s10.637 23.758 23.758 23.758"/><path fill="#a1ccfa" stroke="#17171c" stroke-linecap="round" stroke-linejoin="round" stroke-miterlimit="1.5" stroke-width="2.0003" d="M110.105 92.534c5.447 0 9.862-4.415 9.862-9.861s-4.415-9.862-9.862-9.862c-5.446 0-9.861 4.415-9.861 9.862 0 5.446 4.415 9.861 9.861 9.861"/><path stroke="#17171c" stroke-linecap="round" stroke-linejoin="round" stroke-miterlimit="1.5" stroke-width="2" d="M33.532 60.432c38.303-28.221 76.63-21.933 90.115-17.192m57.786 72.319c-19.254 23.169-41.426 46.214-99.079 41.352"/><path stroke="#17171c" stroke-linecap="round" stroke-linejoin="round" stroke-miterlimit="1.5" stroke-width="1.9956" d="M58.572 66.706c-16.885 16.927-18.76 38.684-4.641 58.024"/></g><defs><clipPath id="XtyNlOv4Tha"><path fill="#fff" d="M0 0h192v192H0z"/></clipPath></defs></svg>