<svg xmlns="http://www.w3.org/2000/svg" width="192" height="192" fill="none" viewBox="0 0 192 192"><g clip-path="url(#Ge6ao1uoMha)"><g stroke-linecap="round" stroke-linejoin="round" stroke-miterlimit="1.5" clip-path="url(#t4r9rj43ddb)"><path fill="#3583ff" fill-rule="evenodd" stroke="#3583ff" stroke-width="1.5054" d="M43.946 27.71c-9.991.494-16.66 8.411-16.626 17.445.025 6.388.053 14.346.087 23.09.097 25.934.227 58.774.33 78.035.05 9.26 6.458 16.749 16.354 16.929 19.577.354 53.162.325 79.713-.016 7.951-.103 15.27-.233 21.395-.388 10.799-.276 18.466-7.37 18.407-16.535-.041-6.395-.066-14.293-.091-22.95-.049-17.394-.093-37.85-.241-55.323-.073-8.688-.172-16.639-.311-23.108-.213-9.939-7.979-17.236-17.811-17.477-6.106-.15-13.501-.278-21.56-.372-17.643-.205-38.47-.246-55.924.008-9.15.134-17.372.348-23.722.662" clip-rule="evenodd"/><path fill="#a1ccfa" fill-rule="evenodd" stroke="#17171c" stroke-width="4.5" d="M43.946 27.608c-9.991.435-16.66 7.393-16.626 15.332.025 5.615.053 12.61.087 20.294.097 22.793.227 51.655.33 68.584.05 8.138 6.458 14.72 16.354 14.878 19.577.311 53.162.286 79.713-.014a2024 2024 0 0 0 21.395-.341c10.799-.242 18.466-6.477 18.407-14.533-.041-5.62-.066-12.561-.091-20.17-.049-15.287-.093-33.266-.241-48.622-.073-7.636-.172-14.624-.311-20.31-.213-8.734-7.979-15.148-17.811-15.36a1960 1960 0 0 0-21.56-.326c-17.643-.18-38.47-.217-55.924.007-9.15.117-17.372.305-23.722.581" clip-rule="evenodd"/><path stroke="#17171c" stroke-width="3" d="M96.514 15.027c-.013.372 39.104-.006 50.866-.006M33.015 174.536c-.013.372 39.104-.006 50.866-.006m70.356-159.542c14.775.224 20.629.641 20.629 25.696M38.26 56.316c.189-12.437.299-18.132 15.27-19.624"/><path stroke="#17171c" stroke-width="4.5" d="M100.804 58.55c0 4.974-.265 43.143.221 52.428"/><path stroke="#17171c" stroke-width="4.5" d="M100.77 78.204c-.245-.746 4.268-16.902 12.061-16.559 10.529.465 6.046 17.383 7.231 48.818M90.204 62.81c-.202-3.73-10.5-9.308-10.444 5.047.06 15.673.468 25.83.385 33.513-.106 9.792-6.133 13.462-10.97 4.295"/><path stroke="#17171c" stroke-width="4.5" d="M72.04 78.568c4.285.06 10.652-.021 15.264-.067"/></g></g><defs><clipPath id="Ge6ao1uoMha"><path fill="#fff" d="M0 0h192v192H0z"/></clipPath><clipPath id="t4r9rj43ddb"><path fill="#fff" d="M0 0h192v192H0z"/></clipPath></defs></svg>