<svg xmlns="http://www.w3.org/2000/svg" width="192" height="192" fill="none" viewBox="0 0 192 192"><g clip-path="url(#1w0eF2kobba)"><g clip-path="url(#GGJqJ7sPYVb)"><path fill="#faa709" fill-rule="evenodd" stroke="#faa709" stroke-linecap="round" stroke-linejoin="round" stroke-miterlimit="1.5" d="M140.153 29.58c7.881-1.253 16.136-1.515 19.16.934 7.431 6.018 3.762 46.031 3.144 47.886-.961 2.882-67.753 89.413-82.67 105.152-1.269 1.339-57.473-58.572-61.343-63.952-.182-.252-.2-.313-.188-.385.456-2.472 66.857-61.705 86.081-79.257.471-.43 20.01-7.865 35.816-10.378m2.579 9.471c-19.155 8.35 5.346 22.774 10.447 9.585.919-2.377-.185-6.769-2.61-8.719-1.492-1.199-5.709-1.794-7.837-.866" clip-rule="evenodd"/><path stroke="#17171c" stroke-linecap="round" stroke-linejoin="round" stroke-miterlimit="1.5" stroke-width="2" d="M13.675 126.775c.566.587 29.478 31.613 30.159 32.34m126.291-70.702c-.543.668-38.434 49.103-39.231 50.193m-82.342 25.702c2.38 2.763 5.277 5.818 8.395 9.179M53.04 73.563c.505-.436 40.511-37.547 41.136-38.104"/><path fill="#fcb4cd" fill-rule="evenodd" stroke="#17171c" stroke-linecap="round" stroke-linejoin="round" stroke-miterlimit="1.5" stroke-width="2.0037" d="M153.123 9.792c12.273 0 23.183 8.136 23.183 19.686s-11.168 19.839-23.439 19.839c-12.273 0-21.352-7.378-21.352-18.929s9.336-20.596 21.608-20.596m-.787 5.285c7.978-.91 17.113 8.52 17.139 14.294.048 11.063-9.59 13.12-16.285 13.763-6.298.606-14.573-.184-15.528-13.134-.426-5.76 3.448-13.642 14.674-14.923" clip-rule="evenodd"/><path fill="#faa709" fill-rule="evenodd" d="M150.009 39.448c-6.323-4.869 9.147-9.761 10.997-6.336 1.849 3.423 2.265 7.779 2.685 15.724.706 13.387-15.373 8.15-11.936 2.481 2.812-4.638.152-10.407-1.746-11.869" clip-rule="evenodd"/><path stroke="#17171c" stroke-linecap="round" stroke-linejoin="round" stroke-miterlimit="1.5" stroke-width="3" d="M96.84 101.291c1.599-8.858-.066-31.336-8.869-29.317-10.315 2.366.07 33.448 27.597 37.808 12.108 1.917 5.082-11.078 1.507-14.904m-2.633-12.112c1.631-8.851.051-31.336-8.759-29.35-10.324 2.328-.056 33.449 27.454 37.912 12.101 1.963 5.124-11.059 1.564-14.898M59.727 99.85c8.292 8.477 26.849 26.268 36.43 35.513M59.7 99.665c2.402-3.29 11.124-9.917 17.973-3.362 6.112 5.848-4.7 15.7-3.39 17.013.727.728 16.267-10.588 35.359 8.562m-54.017-12.125c-2.807-2.465-13.997.99-3.7 10.993 11.24 10.922 18.784 17.738 24.214 23.171 6.923 6.927 5.329 13.801-4.605 10.843"/><path stroke="#17171c" stroke-linecap="round" stroke-linejoin="round" stroke-miterlimit="1.5" stroke-width="3" d="M54.223 133.709c3.04-3.02 7.437-7.626 10.63-10.954"/></g></g><defs><clipPath id="1w0eF2kobba"><path fill="#fff" d="M0 0h192v192H0z"/></clipPath><clipPath id="GGJqJ7sPYVb"><path fill="#fff" d="M0 0h192v192H0z"/></clipPath></defs></svg>