<svg xmlns="http://www.w3.org/2000/svg" width="192" height="192" fill="none" viewBox="0 0 192 192"><g stroke-linecap="round" stroke-linejoin="round" stroke-miterlimit="1.5" clip-path="url(#nKWVC5PmnIa)"><path fill="#3583ff" fill-rule="evenodd" stroke="#3583ff" d="M136.406 68.175c.13-17.607-14.454-31.973-40.008-31.815-26.16.163-40.131 15.674-40.139 31.6-.002 2.494-.75 26.638-.81 34.369-.059 7.625.098 21.82.338 35.683.182 10.523 3.675 36.413 40.531 36.921 40.06.552 39.667-28.92 39.667-37.43 0-8.691.722-25.947.794-34.75.042-5.061-.399-31.133-.373-34.578" clip-rule="evenodd"/><path stroke="#17171c" stroke-width="3" d="M96.155 164.003c21.075 1.975 28.181-8.874 27.927-19.159"/><path stroke="#17171c" stroke-width="4.5" d="M56.502 87.282c19.722 8.597 59.004 8.06 80.191.7"/><path fill="#a1ccfa" fill-rule="evenodd" stroke="#17171c" stroke-width="4.5" d="M101.733 83.015c.091-.299 2.647-28.641-5.41-28.558-7.467.076-5.579 27.686-5.531 28.354.035.497 10.9.332 10.941.204" clip-rule="evenodd"/><path stroke="#17171c" stroke-width="4.5" d="M96.17 36.604a7028 7028 0 0 0-.011 17.86m.018 38.906c0-2.826-.002-6.334-.004-10.222"/><path stroke="#17171c" stroke-width="3" d="M44.045 97.42c.035 8.92.173 37.236.1 46.588m-.259-55.183c.024-2.483.045-12.49.04-15.153m80.212 64.78c.043-4.248.069-10.819.069-15.038"/><path stroke="#17171c" stroke-width="3.0041" d="M34.412 42.156c3.182-11.764 12.035-19.5 20.159-22.962"/><path fill="#c71f16" stroke="#c71f16" stroke-width="1.5013" d="M62.349 62.934c-9.162 0-16.59-7.427-16.59-16.59 0-9.161 7.428-16.588 16.59-16.588s16.589 7.427 16.589 16.589-7.428 16.589-16.59 16.589"/></g><defs><clipPath id="nKWVC5PmnIa"><path fill="#fff" d="M0 0h192v192H0z"/></clipPath></defs></svg>