<svg xmlns="http://www.w3.org/2000/svg" width="192" height="192" fill="none" viewBox="0 0 192 192"><g stroke-linecap="round" stroke-linejoin="round" stroke-miterlimit="1.5" clip-path="url(#ZkOU1t7mcta)"><path fill="#a1ccfa" fill-rule="evenodd" stroke="#a1ccfa" stroke-width="4.4969" d="M61.183 155.47c13.58-.006 91.522.195 93.054.245 14.147.456 28.031-8.819 28.989-27.346 1.346-26.015-21.887-33.815-21.86-33.857 14.378-22.039-3.662-66.12-45.41-66.626-46.286-.56-55.807 32.923-55.918 32.923-35.082.286-51.033 24.764-50.743 51.56.226 20.72 21.273 43.114 51.888 43.101" clip-rule="evenodd"/><path stroke="#17171c" stroke-width="3" d="M120.465 38.387c15.465 1.667 32.235 13.962 31.083 37.783M46.69 167.848c19.943-.015 32.059-.23 51.745-.23m12.635.136c7.988.053 16.71-.054 23.188-.054M95.213 19.538c-18.555 2.334-33.722 13.304-40.4 28.401"/><path stroke="#17171c" stroke-width="3.0002" d="M59.181 60.374c5.522.49 8.595 2.112 11.476 5.1"/><path stroke="#17171c" stroke-width="3" d="M92.871 83.826c2.292.034 30.032.537 35.111.537m-65.269 36.433c2.673.004 36.81.522 37.341.562"/><path fill="#f84303" fill-rule="evenodd" stroke="#17171c" stroke-width="4.5019" d="M130.066 93.55c-1.147-1.644-66.134-2.363-66.244-.945-.287 3.722-.961 17.323.297 20.198.454 1.043 66.72 1.285 66.837.257.348-3.06-.198-18.516-.89-19.51" clip-rule="evenodd"/></g><defs><clipPath id="ZkOU1t7mcta"><path fill="#fff" d="M0 0h192v192H0z"/></clipPath></defs></svg>