<svg xmlns="http://www.w3.org/2000/svg" width="192" height="192" fill="none" viewBox="0 0 192 192"><g stroke-linecap="round" stroke-linejoin="round" stroke-miterlimit="1.5" clip-path="url(#EIfB2Wp9p4a)"><path stroke="#17171c" stroke-width="1.9955" d="M128.367 169.266c-.036-8.337.025-42.462.335-45.213.184-1.639 31.492-1.122 37.949-1.122M66.558 17.553c.96 13.772.8 33.805.654 49.184"/><path fill="#3583ff" fill-rule="evenodd" stroke="#3583ff" d="M114.812 14.955c-13.045-1.983-36.626-1.739-36.877 1.727-.93 12.671 2.642 58.692-.82 58.921-11.222.736-52.378-1.822-52.61 1.182-.61 7.901-2.105 28.481.564 34.582.965 2.208 51.295-.58 53.445.904 1.613 1.109-1.33 60.347 2.635 60.763 11.306 1.182 25.442 1.304 34.635.888 1.636-.072 1.007-50.707 1.461-59.821.217-4.412 50.673-1.872 50.921-4.053.739-6.494-.256-30.593-1.724-32.702-2.437-3.493-51.245.984-51.878-2.208-.808-4.057 3.714-59.657.248-60.183" clip-rule="evenodd"/><path stroke="#17171c" stroke-width="2" d="M108.291 27.87c-.05 7.996-.191 19.264-.58 27.466-.514 10.757-.766 19.657-.446 21.255.355 1.8 1.32 3.806 3.772 5.277 1.178.706 4.198 1.621 8.583 1.823 2.082.095 4.888.164 8.08.21M85.557 121.11c-.236-7.539-.316-13.121-1.354-15.699-.575-1.418-7.79-.976-10.852-1.022-8.785-.129-26.6.542-37.682.465"/></g><defs><clipPath id="EIfB2Wp9p4a"><path fill="#fff" d="M0 0h192v192H0z"/></clipPath></defs></svg>