<svg xmlns="http://www.w3.org/2000/svg" width="192" height="192" fill="none" viewBox="0 0 192 192"><g stroke-linecap="round" stroke-linejoin="round" stroke-miterlimit="1.5" clip-path="url(#H7i4IQWNJta)"><path fill="#3583ff" fill-rule="evenodd" stroke="#3583ff" stroke-width=".9983" d="M129.737 40.318c.074-.006-.936-1.425-.834-2.643.239-2.856 1.06-7.227.225-10.61-1.401-5.677-5.831-7.098-5.517-7.065 9.929 1.052 24.684 17.279 25.837 30.932.017.206-1.259-8.705-8.207-9.401-10.599-1.064-10.859-.48-11.504-1.213" clip-rule="evenodd"/><path fill="#a1ccfa" fill-rule="evenodd" stroke="#17171c" stroke-width="3" d="M46.318 164.938c-.23-.746-3.255-143.286-3.232-144.1.014-.481 47.196-.547 78.625-.395 11.366.054 5.518 17.43 8.085 19.726 3.262 2.92 19.283-2.568 19.295 11.995.034 41.725-.194 110.938-.261 111.928-.066.975-102.369 1.311-102.512.846" clip-rule="evenodd"/><path fill="#f5e4e2" fill-rule="evenodd" stroke="#f5e4e2" d="M55.508 151.496c-.027-5.757-.278-37.775-.354-47.454-.008-1.059-.34-14.488-.45-18.865-.002-.076 67.288-.035 82.81-.033.809 0-.896 56.506-.606 66.752.013.432-81.436-.4-81.4-.4" clip-rule="evenodd"/><path stroke="#17171c" stroke-width="2" d="M40.398 176.24c6.424.348 45.348.003 57.483.003m-63.373-28.26c.03.599.398 11.078.609 15.459M32.049 80.85c.296 4.736 2.218 60.725 2.237 61.172M160.567 20.75c-.071 5.145-.386 80.837-.173 88.719m-105.041 8.732c3.13.156 73.605-.046 81.682.02m.356-16.94c-6.571.121-73.879-.165-82.242-.03m.397 34.012c15.564.072 64.868.077 81.059-.101"/><path stroke="#17171c" stroke-width="2" d="M76.125 151.435c.007-9.099-.356-57.033-.362-66.287m10.73-12.535c16.191-.03 43.732.107 51.48.107M86.252 59.036c16.191-.03 43.831.107 51.579.107"/><path stroke="#17171c" stroke-width="3" d="M74.309 47.999c-3.647-3.423-16.785-1.253-16.75 10.71.051 16.747 17.832 14.497 20.76 7.824"/><path stroke="#17171c" stroke-width="3" d="M53.282 55.828c4.978.158 9.17-.061 14.79.083M53.324 62.6c.184.215 10.262-.245 14.706-.245"/></g><defs><clipPath id="H7i4IQWNJta"><path fill="#fff" d="M0 0h192v192H0z"/></clipPath></defs></svg>