<svg xmlns="http://www.w3.org/2000/svg" width="192" height="192" fill="none" viewBox="0 0 192 192"><g stroke-linecap="round" stroke-linejoin="round" stroke-miterlimit="1.5" clip-path="url(#GDZmkdVD4Ha)"><path fill="#97675d" fill-rule="evenodd" stroke="#97675d" d="M38.223 26.4c-16.161-.164-18.126 1.883-18.254 16.104-.208 23.388.156 69.579.457 93.351.205 16.075 4.513 15.472 17.957 15.627 27.931.321 81.833.409 111.013-.372 16.78-.451 19.874-1.798 20.21-15.265.426-17.052-.72-66.835-1.006-81.65-.053-2.757-1.964-4.738-5.183-4.77-19.416-.197-87.94-.307-91.382-.372-.255-.006-8.436-22.438-11.5-22.47-8.497-.09-16.286-.121-22.312-.183" clip-rule="evenodd"/><path fill="#c71f16" fill-rule="evenodd" stroke="#17171c" stroke-width="4.5" d="M163.76 65.565c-16.764-.148-111.818-.01-137.47.223-4.057.037-6.368 3.883-6.354 7.047.067 15.75.276 50.111.49 64.978.204 14.09 4.512 13.562 17.957 13.698 27.931.281 81.833.358 111.012-.327 16.781-.395 19.875-1.575 20.211-13.38.426-14.948-.377-55.07-.662-68.057-.054-2.417-1.966-4.153-5.184-4.182" clip-rule="evenodd"/><path stroke="#17171c" stroke-width="3" d="M179.297 79.799c.026 19.988-.216 44.989-.216 59.889m-146.564 21.71c10.713-.17 40.565-.278 47.396-.261m8.265-.27c8.681-.091 17.143-.023 26.678-.142m-34.975-120.6c5.421.055 48.358.371 63.182.371"/><path fill="#f84303" fill-rule="evenodd" stroke="#f84303" d="M85.379 109.146c-.354.007-13.775 19.869-14.639 22.207-.367.991 10.39 7.259 11.067 6.313 6.625-9.283 9.698-14.193 14.054-20.406 2.34-3.339 11.648 18.827 12.657 20.232.978 1.359 7.537-2.494 11.853-7.212 1.888-2.063-14.1-21.272-13.687-21.862 7.447-10.638 18.471-27.084 18.471-27.259 0-.006-8.26-5.191-12.693-5.032-1.196.043-9.994 14.28-13.814 20.813-4.468 7.641-8.85-2.237-19.672-16.263-.243-.314-5.255 1.744-9.63 8.882-.3.491 11.715 15.124 16.033 19.587" clip-rule="evenodd"/><path stroke="#17171c" stroke-width="3" d="M113.781 144.829c4.86-.767 9.274-3.773 11.375-7.061"/></g><defs><clipPath id="GDZmkdVD4Ha"><path fill="#fff" d="M0 0h192v192H0z"/></clipPath></defs></svg>