<svg xmlns="http://www.w3.org/2000/svg" width="192" height="192" fill="none" viewBox="0 0 192 192"><g stroke-linecap="round" stroke-linejoin="round" stroke-miterlimit="1.5" clip-path="url(#2reRNzO38ka)"><path fill="#c71f16" fill-rule="evenodd" stroke="#c71f16" d="M33.44 123.809c.142-5.128-.446-55.196.617-55.203 1.393-.008 42.229.78 85.412.161.426-.007-.505-25.729.297-25.11 11.655 8.978 53.749 40.794 53.492 52.164-.231 10.277-41.645 43.117-53.992 53.765-1.328 1.144.079-26.719-.782-26.771-1.329-.081-85.043.994-85.043.994" clip-rule="evenodd"/><path stroke="#17171c" stroke-width="2.9959" d="M45.074 111.017c2.145.013 11.407-.025 22.417-.081m6.209-.032c17.872-.095 37.596-.212 38.869-.212"/><path stroke="#17171c" stroke-width="3" d="M149.071 53.465c10.446 8.67 20.017 17.885 28.959 29.202m-33.889-33.225c-4.303-3.687-14.793-12.018-17.742-13.984"/><path stroke="#17171c" stroke-width="2.9959" d="M23.386 123.082c-.069-16.154-.125-41.153-.125-52.633"/></g><defs><clipPath id="2reRNzO38ka"><path fill="#fff" d="M0 0h192v192H0z"/></clipPath></defs></svg>