<svg xmlns="http://www.w3.org/2000/svg" width="192" height="192" fill="none" viewBox="0 0 192 192"><g stroke-linecap="round" stroke-linejoin="round" stroke-miterlimit="1.5" clip-path="url(#xuHfCF9KJPa)"><path fill="#97675d" fill-rule="evenodd" stroke="#17171c" stroke-width="3.003" d="M76.799 10.285c-86.6.005-82.992 126.081.805 123.526 82.536-2.514 73.983-123.53-.805-123.526" clip-rule="evenodd"/><path fill="#97675d" fill-rule="evenodd" stroke="#17171c" stroke-width="3" d="M113.607 123.61c6.659 3.003 46.998 63.65 60.95 49.371 13.566-13.883-46.241-53.779-50.684-60.907zm48.253 35.695c-2.452 2.202.427 8.786 5.292 7.963 1.953-.33 3.107-2.614 1.007-6.046-.839-1.37-4.514-3.52-6.299-1.917" clip-rule="evenodd"/><path stroke="#17171c" stroke-width="2.0027" d="M122.717 132.768c4.169.095 11.546-6.618 11.524-11.052m-7.592 14.813c4.169.095 11.546-6.617 11.524-11.051"/><path fill="#a1ccfa" fill-rule="evenodd" stroke="#a1ccfa" d="M76.46 20.61c-72.127.004-69.123 105.01.67 102.883 68.743-2.094 61.62-102.886-.67-102.883" clip-rule="evenodd"/><path stroke="#17171c" stroke-width="1.9996" d="M63.317 30.748c-21.87 4.768-38.86 37.524-23.425 63.67m6.352 8.685c7.853 8.854 26.343 15.62 42.77 9.257m31.219-100.257c22.139 9.724 36.062 56.057 25.541 82.056"/><path stroke="#17171c" stroke-width="2.0027" d="M117.832 140.869c5.741 10.872 27.805 38.924 44.396 40.429"/></g><defs><clipPath id="xuHfCF9KJPa"><path fill="#fff" d="M0 0h192v192H0z"/></clipPath></defs></svg>