<svg xmlns="http://www.w3.org/2000/svg" width="192" height="192" fill="none" viewBox="0 0 192 192"><g stroke-linecap="round" clip-path="url(#dY9IWj9X1Va)"><path fill="#3583ff" fill-rule="evenodd" stroke="#3583ff" stroke-linejoin="round" stroke-miterlimit="1.5" stroke-width="1.4974" d="M129.737 40.318c.074-.006-.936-1.425-.834-2.643.239-2.856 1.06-7.227.225-10.61-1.401-5.677-5.831-7.098-5.517-7.065 9.929 1.052 24.684 17.279 25.837 30.932.017.206-1.259-8.705-8.207-9.401-10.599-1.064-10.859-.48-11.504-1.213" clip-rule="evenodd"/><path fill="#a1ccfa" fill-rule="evenodd" stroke="#17171c" stroke-linejoin="round" stroke-miterlimit="1.5" stroke-width="4.5" d="M46.318 164.938c-.23-.746-3.255-143.286-3.232-144.1.014-.481 47.196-.547 78.625-.395 11.366.054 5.518 17.43 8.085 19.726 3.262 2.92 19.283-2.568 19.294 11.995.035 41.725-.193 110.938-.26 111.928-.066.975-102.369 1.311-102.512.846" clip-rule="evenodd"/><path stroke="#17171c" stroke-linejoin="round" stroke-miterlimit="1.5" stroke-width="3" d="M40.398 176.24c6.424.348 45.348.003 57.483.003m-63.373-28.261c.03.599.397 11.079.609 15.459m-3.068-82.59c.296 4.735 2.218 60.724 2.237 61.171M160.567 20.75c-.071 5.145-.386 80.837-.173 88.719"/><path stroke="#17171c" stroke-linejoin="round" stroke-miterlimit="1.5" stroke-width="4.5" d="M85.607 107.648c.887 4.394 9.66 42.25 10.896 42.245 1.366-.007 9.662-35.281 11.568-41.855"/><path stroke="#17171c" stroke-linejoin="round" stroke-miterlimit="1.5" stroke-width="4.5057" d="M77.721 114.046c-1.957-15.82-23.667-2.026-7.603 11.224 5.154 4.251 10.961 5.163 12.069 15.032 1.248 11.12-19.437 15.141-20.218-1.612"/><path stroke="#17171c" stroke-width="4.5" d="M131.45 112.359c-1.976-4.158-5.792-6.188-8.715-4.76-13.988 6.831-7.987 42.798 2.124 42.798 8.207 0 8.483-17.323 7.748-22.516-.054-.38-7.203.103-7.748.323"/></g><defs><clipPath id="dY9IWj9X1Va"><path fill="#fff" d="M0 0h192v192H0z"/></clipPath></defs></svg>