<?xml version="1.0" encoding="UTF-8"?>
<svg version="1.1" xmlns="http://www.w3.org/2000/svg" width="1405" height="256">
<path d="M0 0 C463.65 0 927.3 0 1405 0 C1405 84.48 1405 168.96 1405 256 C941.35 256 477.7 256 0 256 C0 171.52 0 87.04 0 0 Z " fill="#FEFEFE" transform="translate(0,0)"/>
<path d="M0 0 C4.62 0 9.24 0 14 0 C13.01890371 17.4144591 7.58964202 33.00091982 1 49 C0.6695166 49.80679199 0.3390332 50.61358398 -0.00146484 51.44482422 C-11.94835281 80.29015322 -31.44614635 109.91247643 -61.0234375 122.83203125 C-64.64478673 124.32782503 -68.30511764 125.69567231 -72 127 C-73.52753906 127.53947266 -73.52753906 127.53947266 -75.0859375 128.08984375 C-95.85945791 134.57808806 -119.23779219 132.17441529 -138.38574219 122.20288086 C-157.59509107 111.70122505 -168.61256927 96.85092403 -175.08984375 76.27734375 C-178.91399644 62.50711152 -178.49949491 48.20172576 -171.6796875 35.55078125 C-166.04989945 26.24471084 -157.4086497 20.8803033 -147 18 C-132.08319889 16.43066192 -119.88935723 20.57485538 -107.9375 29.5625 C-91.47682413 43.53706425 -80.64241119 63.54177665 -69.50170898 81.7097168 C-65.48895641 88.25019736 -61.3377657 94.67026938 -57 101 C-52.04242102 99.45173401 -47.36189599 97.48219062 -42.625 95.375 C-41.52091797 94.88773438 -41.52091797 94.88773438 -40.39453125 94.390625 C-38.59529031 93.59615497 -36.79749504 92.79841229 -35 92 C-35.33 91.01 -35.66 90.02 -36 89 C-36.680625 89.165 -37.36125 89.33 -38.0625 89.5 C-41.64877044 90.11042901 -44.36652926 90.50996081 -48 90 C-52.40036068 86.10525528 -55.51078456 80.87775718 -58.5 75.875 C-63.27712243 68.03430876 -68.35809385 60.41730002 -73.52929688 52.83154297 C-74.11001953 51.97189941 -74.69074219 51.11225586 -75.2890625 50.2265625 C-75.81193848 49.45908691 -76.33481445 48.69161133 -76.87353516 47.90087891 C-78 46 -78 46 -78 44 C-74.8896802 44.35888305 -73.74392201 45.22034618 -71.3125 47.3125 C-62.76921279 54.53336192 -53.89550358 54.95954197 -43.09423828 54.22314453 C-30.43399326 52.87417461 -19.86156962 44.21932832 -10.99609375 35.72265625 C-9 34 -9 34 -7 34 C-6.7215625 33.41863281 -6.443125 32.83726562 -6.15625 32.23828125 C-5.05611368 30.10862547 -3.83029857 28.17889206 -2.5 26.1875 C1.46231654 19.85246884 2.85251846 13.4093884 2 6 C1.01 3.03 1.01 3.03 0 0 Z " fill="#FDFDFE" transform="translate(709,108)"/>
<path d="M0 0 C11.55 0 23.1 0 35 0 C38.0625 6.125 38.0625 6.125 39.18457031 8.37133789 C41.30664569 12.61884333 43.43340134 16.86394975 45.56593323 21.10621643 C52.53446909 34.97116112 59.42645211 48.86213345 66.0859375 62.87890625 C69.39630283 69.84530229 72.74128032 76.7948885 76.0949707 83.74050903 C76.7789102 85.15781113 77.46202263 86.57551265 78.14428711 87.99362183 C79.09680083 89.97327998 80.05195929 91.95164008 81.0078125 93.9296875 C81.56098145 95.07679199 82.11415039 96.22389648 82.68408203 97.40576172 C83.76380866 99.86738828 83.76380866 99.86738828 85 101 C85.25676482 100.48554856 85.51352964 99.97109713 85.77807522 99.44105625 C92.01834838 86.93845065 98.26084611 74.43695802 104.50575924 61.93666935 C107.52567751 55.89167079 110.54484318 49.84629852 113.56225586 43.80004883 C116.47169892 37.9701524 119.38321462 32.14129397 122.29602242 26.31307793 C123.40954504 24.08417838 124.52236105 21.85492568 125.6344738 19.62532234 C127.18668284 16.51369423 128.74135103 13.403307 130.29663086 10.29321289 C130.76057251 9.36173431 131.22451416 8.43025574 131.70251465 7.47055054 C132.12459702 6.62776047 132.54667938 5.7849704 132.98155212 4.91664124 C133.53324522 3.81187234 133.53324522 3.81187234 134.09608364 2.68478489 C135 1 135 1 136 0 C146.23 0 156.46 0 167 0 C167 39.6 167 79.2 167 120 C159.74 120 152.48 120 145 120 C144.67 87.66 144.34 55.32 144 22 C134.246008 41.5473233 134.246008 41.5473233 124.49658203 61.09692383 C117.78333029 74.54664763 111.03477788 87.96934599 103.94732666 101.22720337 C102.64110107 103.67163191 101.34808645 106.1229849 100.0546875 108.57421875 C99.3284186 109.94546804 98.60182656 111.31654621 97.875 112.6875 C96.59625 115.100625 95.3175 117.51375 94 120 C87.07 120 80.14 120 73 120 C61.53037273 98.51720607 50.58068562 76.74459472 40.125 54.75 C34.8885402 43.76620626 29.44176876 32.88353752 24 22 C23.67 54.67 23.34 87.34 23 121 C15.41 121 7.82 121 0 121 C0 81.07 0 41.14 0 0 Z " fill="#4F3151" transform="translate(1120,31)"/>
<path d="M0 0 C3.79102871 3.59150088 4.32359623 6.65347002 4.5625 11.8125 C4.02422013 26.21556449 -1.83467727 38.53497713 -8.6953125 50.953125 C-9.09008789 51.66791016 -9.48486328 52.38269531 -9.89160156 53.11914062 C-11 55 -11 55 -12.8671875 57.421875 C-16.57468124 65.85961937 -11.04863955 79.06272751 -9 87.6875 C-8.44398535 90.04427688 -7.889861 92.40146275 -7.33911133 94.75947571 C-6.99851981 96.21613802 -6.654816 97.67207765 -6.30737305 99.12712097 C-5.30147314 103.41023579 -4.56158791 107.64237567 -4 112 C1.12068744 106.45381131 5.8807782 100.67645629 10.5090332 94.71826172 C14.25669827 89.90866266 18.10907012 85.19419815 22 80.5 C26.7116053 74.81076687 31.34017408 69.07001676 35.88232422 63.24487305 C41.00187588 56.69113404 46.26157506 50.25261365 51.5234375 43.81298828 C52.83503893 42.20254645 54.13697689 40.58424513 55.4375 38.96484375 C67.88841534 23.51236846 80.62277153 9.45907616 100 3 C101.72795352 2.93197033 103.45835365 2.91504355 105.1875 2.9375 C106.08855469 2.94652344 106.98960937 2.95554688 107.91796875 2.96484375 C108.60503906 2.97644531 109.29210937 2.98804688 110 3 C108.0945267 11.82003173 105.76894996 20.41203845 103 29 C101.35 29.33 99.7 29.66 98 30 C96.75696384 26.40900664 97.31883985 23.68331043 98 20 C87.23032464 19.56857384 81.07305001 20.51608865 73.01171875 27.87109375 C56.33295462 45.52143637 53.0759654 72.7768505 49.1875 95.6875 C48.9805249 96.90308594 48.7735498 98.11867188 48.56030273 99.37109375 C47.23926936 107.52312115 46.13752454 115.73105214 46 124 C46.33 124.33 46.66 124.66 47 125 C51.04352289 124.53343967 55.01928836 123.84439338 59 123 C59.33 124.65 59.66 126.3 60 128 C56.21246752 129.57328857 52.42215986 131.13966727 48.62915039 132.69970703 C47.33930654 133.23134392 46.05023565 133.76486022 44.76196289 134.30029297 C42.90976143 135.06972387 41.05452554 135.83183735 39.19921875 136.59375 C37.52605591 137.28500977 37.52605591 137.28500977 35.8190918 137.99023438 C33 139 33 139 30 139 C28.59377074 114.62535943 35.82516029 89.67881203 41 66 C40.36835938 66.81339844 39.73671875 67.62679687 39.0859375 68.46484375 C33.81734278 75.22273728 28.46637271 81.90086755 23 88.5 C18.31003211 94.16234018 13.70750411 99.87803383 9.19238281 105.68041992 C4.87718358 111.20403301 0.41040571 116.59883043 -4.05908203 121.99780273 C-8.13404577 126.92708404 -12.1366531 131.90212496 -16 137 C-17.32 136.67 -18.64 136.34 -20 136 C-19.54177532 132.53058454 -19.10868317 129.32604951 -18 126 C-16.94070305 114.99568469 -19.48147539 104.79298178 -22 94.1875 C-22.38671175 92.51266829 -22.77213744 90.8375391 -23.15625 89.16210938 C-24.08940317 85.10449719 -25.0397708 81.05128615 -26 77 C-26.52964355 77.66676758 -27.05928711 78.33353516 -27.60498047 79.02050781 C-28.31025879 79.90577148 -29.01553711 80.79103516 -29.7421875 81.703125 C-30.78415283 83.01265137 -30.78415283 83.01265137 -31.84716797 84.34863281 C-35.40034071 88.7246201 -39.1419453 92.89172456 -43 97 C-43.49741699 97.53141602 -43.99483398 98.06283203 -44.50732422 98.61035156 C-57.32335763 112.19030588 -71.18530989 122.84921712 -88 131 C-89.24523437 131.62841797 -89.24523437 131.62841797 -90.515625 132.26953125 C-92.65040631 133.29468702 -94.77959049 134.17777322 -97 135 C-97.79277344 135.29777344 -98.58554688 135.59554687 -99.40234375 135.90234375 C-116.4234452 141.20159628 -136.01301434 139.24963437 -151.75 131.25 C-165.78771737 123.02170617 -174.82431231 112.42229527 -179.8125 96.875 C-183.39815531 82.38895253 -181.18565916 67.34062057 -173.6484375 54.52734375 C-166.27901881 43.22873263 -156.09276842 36.17532257 -143 33 C-142.08379883 32.66661621 -141.16759766 32.33323242 -140.22363281 31.98974609 C-127.34514334 28.035687 -109.66740678 29.31235967 -97.48828125 35.109375 C-87.31421189 40.62365224 -78.24393359 47.14969588 -69.25390625 54.421875 C-63.21310999 59.61385486 -63.21310999 59.61385486 -56.0625 62.5625 C-52.53431124 61.91446533 -49.99171742 60.60349412 -46.9296875 58.77734375 C-44.5491127 57.81836726 -43.37727173 58.16003066 -41 59 C-41 60.32 -41 61.64 -41 63 C-44.73503102 65.23442843 -48.49004441 67.43281562 -52.25 69.625 C-53.31347656 70.26179688 -54.37695312 70.89859375 -55.47265625 71.5546875 C-56.49746094 72.14765625 -57.52226563 72.740625 -58.578125 73.3515625 C-59.52075195 73.90666504 -60.46337891 74.46176758 -61.43457031 75.03369141 C-64 76 -64 76 -66.20849609 75.27880859 C-68.44868695 73.67971896 -70.38444473 71.90223711 -72.375 70 C-83.05075783 60.26071215 -95.10836677 52.48378173 -108 46 C-109.09441406 45.44828125 -110.18882813 44.8965625 -111.31640625 44.328125 C-123.42896851 39.13910916 -139.62289732 38.32380652 -152 43.125 C-160.88689557 47.72967593 -166.46542362 53.79028788 -170.25 63.0625 C-173.87189333 77.24824886 -172.15636694 90.80542448 -164.71484375 103.46875 C-157.44142241 114.20491636 -145.96634658 121.13843677 -133.49609375 124.3359375 C-117.87392427 127.08995265 -100.43771517 126.88387579 -86 120 C-84.66954768 119.41213347 -83.33880538 118.82492288 -82.0078125 118.23828125 C-69.69010553 112.61153058 -59.23412582 104.92668526 -50 95 C-45 90 -45 90 -43.453125 88.55859375 C-38.63163791 83.96933425 -34.74013919 78.83144438 -30.8203125 73.4765625 C-29 71 -29 71 -28 70 C-27.96103889 67.81019557 -27.98876524 65.61916766 -28.04296875 63.4296875 C-28.06542192 62.0429841 -28.08686992 60.65626413 -28.10742188 59.26953125 C-28.14397207 57.0953996 -28.18618497 54.92213543 -28.24682617 52.74853516 C-28.60970471 39.09225885 -26.64733057 26.77513922 -20.1875 14.5 C-19.84565674 13.83347412 -19.50381348 13.16694824 -19.15161133 12.48022461 C-14.97622436 4.64884454 -9.82481986 -3.00759792 0 0 Z " fill="#5D509A" transform="translate(181,59)"/>
<path d="M0 0 C-0.56236727 5.31319906 -1.47184833 10.17184274 -3 15.3125 C-3.350625 16.50488281 -3.70125 17.69726562 -4.0625 18.92578125 C-4.68242062 20.95860429 -5.32793817 22.9838145 -6 25 C-7.65 25 -9.3 25 -11 25 C-11 21.04 -11 17.08 -11 13 C-27.06686057 9.78662789 -42.46895714 11.22474676 -56.375 20.25 C-67.19264387 28.53585488 -75.4738804 40.74772439 -77.78515625 54.43359375 C-79.11080946 69.78791262 -79.11080946 69.78791262 -74 84 C-71.64581624 86.93973281 -71.64581624 86.93973281 -69 89 C-68.360625 89.556875 -67.72125 90.11375 -67.0625 90.6875 C-60.40423997 94.92457457 -53.25360076 94.89871997 -45.74609375 93.3125 C-36.32126824 90.6914593 -29.91670395 87.42516883 -24.625 79.0625 C-20.9860166 72.4470655 -19.28395591 66.51846292 -20 59 C-21.46562137 55.62269858 -22.64978388 53.67908709 -25.98828125 52 C-30.90965453 50.23204552 -35.80897508 49.47191136 -41 49 C-41 47.35 -41 45.7 -41 44 C-21.2 44 -1.4 44 19 44 C13.32037434 89.43700525 -12.52212631 137.06899272 -48.7421875 165.36083984 C-74.28480176 184.35461162 -103.91249965 192.10756753 -135.55029297 188.72753906 C-149.41756131 186.58101605 -162.59882936 179.25491918 -173 170 C-173.61101563 169.45859375 -174.22203125 168.9171875 -174.8515625 168.359375 C-187.82672243 156.1272859 -195.39028501 138.74772862 -196.24609375 120.984375 C-196.71752452 103.21376042 -192.91244219 87.63576113 -181 74 C-169.56118085 62.89699939 -155.61367364 59.62197931 -140.17602539 59.77197266 C-124.28457858 60.14945846 -112.0940276 66.86584933 -101 78 C-100.40058594 78.54011719 -99.80117188 79.08023438 -99.18359375 79.63671875 C-87.83976872 90.08567127 -80.09769341 104.95857577 -71.9296875 117.8515625 C-65.64730123 128.46741982 -65.64730123 128.46741982 -58 138 C-53.83062202 138.23600253 -50.05607995 137.98329211 -46 137 C-45.34 138.32 -44.68 139.64 -44 141 C-46.65740728 142.35475665 -49.32272995 143.68519824 -52 145 C-53.09570312 145.54011719 -54.19140625 146.08023438 -55.3203125 146.63671875 C-56.47273437 147.18972656 -57.62515625 147.74273437 -58.8125 148.3125 C-59.91207031 148.84488281 -61.01164063 149.37726563 -62.14453125 149.92578125 C-65 151 -65 151 -68 150 C-69.32763672 148.38378906 -69.32763672 148.38378906 -70.6796875 146.265625 C-71.18975342 145.47430176 -71.69981934 144.68297852 -72.2253418 143.86767578 C-73.04192261 142.57192627 -73.04192261 142.57192627 -73.875 141.25 C-74.73121948 139.91364502 -74.73121948 139.91364502 -75.60473633 138.55029297 C-79.14584063 133.00115597 -82.60771284 127.40485964 -86.04980469 121.79394531 C-91.69449649 112.5948143 -97.41079402 103.55640321 -104 95 C-104.43521973 94.43313477 -104.87043945 93.86626953 -105.31884766 93.28222656 C-114.91458347 80.95521079 -126.88350129 70.08350173 -143 68 C-154.67819264 66.85819651 -164.89228491 69.2693945 -174.5 76.25 C-182.47888733 85.02677606 -186.59519402 95.31150035 -186.4375 107.125 C-186.42396484 108.36213745 -186.42396484 108.36213745 -186.41015625 109.62426758 C-185.90442592 127.80773143 -177.89137378 146.12908871 -165 159 C-147.51978619 174.64151697 -126.25492122 180.24692067 -103.22119141 179.12841797 C-77.75076334 177.65584761 -55.07355189 164.58938434 -38 146 C-35.71857247 143.1825341 -33.59537075 140.27016844 -31.5 137.3125 C-30.93176514 136.51287842 -30.36353027 135.71325684 -29.77807617 134.8894043 C-20.49922553 121.70702801 -14.16122986 107.84707421 -8 93 C-7.68611328 92.25669434 -7.37222656 91.51338867 -7.04882812 90.74755859 C-1.43589382 77.36012694 1.61936189 63.28382864 4 49 C-0.62 49 -5.24 49 -10 49 C-9.01 50.98 -8.02 52.96 -7 55 C-5.44890177 62.75549116 -8.40332644 70.61331182 -12.3203125 77.23046875 C-20.98159905 89.46512762 -36.40623275 100.54040093 -51 104 C-61.95224599 105.34935002 -71.85356318 104.71983113 -81 98 C-87.1816608 92.73038751 -91.353273 86.06819555 -92.22314453 77.90625 C-93.41873078 60.15610431 -88.94311944 43.88133356 -77.09106445 30.2277832 C-56.22292903 7.32691934 -30.24424095 -0.53319915 0 0 Z " fill="#5C4F99" transform="translate(719,59)"/>
<path d="M0 0 C1.05398365 11.2229741 -1.86469423 19.72327286 -6 30 C-4.948125 28.83984375 -4.948125 28.83984375 -3.875 27.65625 C-1.40005071 24.93371814 1.09037661 22.22591071 3.58984375 19.52587891 C4.77366388 18.2449101 5.95020512 16.95721975 7.125 15.66796875 C13.28052437 9.16619613 21.31277679 2.29932754 30.5625 1.8125 C34 2 34 2 36 4 C37.8046291 12.85218063 33.85649479 21.77737572 31 30 C31.4626123 29.52167725 31.92522461 29.04335449 32.40185547 28.55053711 C49.65297371 10.7915288 49.65297371 10.7915288 58 6 C58.71542969 5.57460937 59.43085937 5.14921875 60.16796875 4.7109375 C64.16957132 2.50367454 67.33390969 1.2404039 72 2 C73.70414734 3.26849365 73.70414734 3.26849365 75 5 C74.95885988 11.13509809 71.8016278 17.27062877 69.26171875 22.734375 C68.89907425 23.53425842 68.53642975 24.33414185 68.16279602 25.15826416 C67.01243163 27.69261225 65.85076966 30.22155291 64.6875 32.75 C55.50100295 51.27804019 55.50100295 51.27804019 50 71 C51.41805831 70.71517632 52.83440379 70.42181856 54.25 70.125 C55.03890625 69.96257812 55.8278125 69.80015625 56.640625 69.6328125 C58.96831144 69.00849925 60.89031952 68.15161458 63 67 C63.40992188 67.49371094 63.81984375 67.98742187 64.2421875 68.49609375 C65.05042969 69.45708984 65.05042969 69.45708984 65.875 70.4375 C66.67550781 71.39462891 66.67550781 71.39462891 67.4921875 72.37109375 C69.42888456 74.46332866 70.5163926 74.95107786 73.35546875 75.23828125 C79.86449723 75.40886269 83.78773476 75.01778779 89 71 C92.30398403 67.37627558 92.61386808 63.63819631 92.5 58.8984375 C91.68357267 54.16571032 89.57744591 50.13541396 87.41015625 45.8828125 C84.44426496 39.81957766 84.16667061 33.66663514 85 27 C88.37158172 17.93804123 96.59266431 9.06592993 105 4.375 C112.06981133 1.62919306 120.55961612 2.71105305 128 3 C127.36816907 6.0835768 126.32811656 8.41377992 124.71484375 11.109375 C124.26689453 11.86347656 123.81894531 12.61757812 123.35742188 13.39453125 C122.88884766 14.17183594 122.42027344 14.94914062 121.9375 15.75 C121.46505859 16.54277344 120.99261719 17.33554688 120.50585938 18.15234375 C119.34173427 20.1043111 118.17300098 22.05335805 117 24 C115.35 23.67 113.7 23.34 112 23 C112.66666667 19.66666667 113.33333333 16.33333333 114 13 C106.73375419 12.25821841 106.73375419 12.25821841 100.4375 15.375 C96.86963919 19.21731164 96.5 21.65364277 96.5 26.76953125 C97.1495577 30.96628295 98.75156401 34.40516343 100.5 38.25 C103.89793266 45.87594619 105.55203093 52.57779018 104 61 C101.91384878 66.33784441 98.20770191 70.18371222 94 74 C93.43667969 74.55558594 92.87335938 75.11117187 92.29296875 75.68359375 C86.65415093 81.02381837 80.20632317 85.50558658 72.28515625 86.2578125 C68.09307292 86.04348042 64.80961674 85.28188487 61.375 82.8125 C58.55079867 79.46805105 58.77820644 78.21991432 59 74 C57.98679687 74.55429688 56.97359375 75.10859375 55.9296875 75.6796875 C54.5782613 76.41171002 53.22669113 77.14346679 51.875 77.875 C51.20984375 78.23980469 50.5446875 78.60460937 49.859375 78.98046875 C44.6197653 81.80574849 40.07336946 84 34 84 C35.58477211 65.4745605 42.48146709 49.30587259 49.92919922 32.43408203 C51.50011981 28.86315675 53.03187741 25.27583457 54.5625 21.6875 C55.78125 18.84375 55.78125 18.84375 57 16 C51.1990452 18.62649093 46.97273874 21.36676424 42.5625 25.9375 C42.00320801 26.51177734 41.44391602 27.08605469 40.86767578 27.67773438 C28.69016264 40.48143966 19.1358302 57.23857201 13.5625 74 C12.19397674 77.56121294 11.39911641 78.74447814 8.14453125 80.828125 C4.04692929 82.61011677 0.49374926 84 -4 84 C-1.86534593 76.1475637 1.01473419 68.63450659 4.01324463 61.0803833 C7.80161868 51.51585985 11.54866666 41.94712601 14.625 32.125 C14.84776611 31.41480713 15.07053223 30.70461426 15.30004883 29.97290039 C16.79471917 25.03721959 17.93886614 20.04514262 19 15 C-0.56208328 24.57293437 -10.41835272 46.91424279 -19.71484375 65.40234375 C-20.5800061 67.1201001 -20.5800061 67.1201001 -21.46264648 68.87255859 C-22.38776365 70.75452634 -23.2867621 72.65014238 -24.13305664 74.56884766 C-25.60163246 77.86129387 -26.5756128 79.73883865 -29.69140625 81.65625 C-30.63886719 81.9346875 -31.58632813 82.213125 -32.5625 82.5 C-33.51253906 82.7990625 -34.46257813 83.098125 -35.44140625 83.40625 C-38 84 -38 84 -41 84 C-38.92491042 77.29657176 -36.30621477 70.96051836 -33.4375 64.5625 C-29.59580559 55.84486396 -25.95443585 47.0658777 -22.5 38.1875 C-22.07904053 37.12152588 -21.65808105 36.05555176 -21.22436523 34.95727539 C-18.81768623 28.70050093 -17.05182714 22.62448825 -16 16 C-19.96 16.495 -19.96 16.495 -24 17 C-24.33 15.68 -24.66 14.36 -25 13 C-24.48091064 12.71278076 -23.96182129 12.42556152 -23.42700195 12.12963867 C-21.05499613 10.8165026 -18.68374289 9.50201321 -16.3125 8.1875 C-15.49587891 7.73568359 -14.67925781 7.28386719 -13.83789062 6.81835938 C-10.53614411 4.98702629 -7.25694278 3.15851027 -4.04296875 1.17578125 C-2 0 -2 0 0 0 Z " fill="#5D4F99" transform="translate(827,113)"/>
<path d="M0 0 C3.71751316 1.28677365 6.08469622 2.71072799 8.85702515 5.48953247 C9.58581375 6.21275192 10.31460236 6.93597137 11.06547546 7.68110657 C11.85001602 8.47486191 12.63455658 9.26861725 13.44287109 10.08642578 C14.28091782 10.92242813 15.11896454 11.75843048 15.98240662 12.61976624 C18.27524899 14.91011809 20.5612717 17.20701886 22.84427977 19.50716639 C25.24221218 21.92018008 27.64829306 24.32504291 30.05337524 26.73092651 C34.09498586 30.77622812 38.13092378 34.82711749 42.16308594 38.88183594 C47.3196041 44.06714343 52.48526856 49.24323597 57.6539669 54.416399 C62.11589424 58.88232697 66.57356261 63.35249932 71.03056383 67.8233428 C72.45352772 69.2503815 73.87705975 70.67685155 75.30067062 72.10324478 C77.96916434 74.77865473 80.63425641 77.45740629 83.29833984 80.13720703 C84.07883194 80.91881699 84.85932404 81.70042694 85.66346741 82.50572205 C101.58525826 98.55130405 112.48550827 116.48523122 122.89453125 136.46484375 C123.3016333 137.24335693 123.70873535 138.02187012 124.12817383 138.82397461 C125 141 125 141 125 145 C115.99262681 142.92137542 109.26544168 135.46543033 102.65234375 129.40625 C101.24766418 128.13190152 99.83808519 126.86213365 98.39404297 125.63256836 C82.01788594 111.64884858 65.39419845 95.82464628 53.328125 77.93554688 C50.70208455 74.10847911 47.8922794 70.41294425 45.125 66.6875 C43.94180944 65.08008836 42.75951976 63.47201321 41.578125 61.86328125 C39.19902341 58.62679305 36.81343183 55.39526361 34.421875 52.16796875 C26.80258971 41.87890095 19.28881251 31.52633123 12 21 C11.51950195 20.30793457 11.03900391 19.61586914 10.54394531 18.90283203 C9.14483796 16.87900478 7.75770578 14.84755927 6.375 12.8125 C5.96088867 12.21276367 5.54677734 11.61302734 5.12011719 10.99511719 C2.73816061 7.44927281 1.15997851 4.10981635 0 0 Z " fill="#7D7A79" transform="translate(1069,111)"/>
<path d="M0 0 C-1.49077805 5.74361112 -4.44834055 9.96695337 -7.8125 14.75 C-8.39 15.58200928 -8.9675 16.41401855 -9.5625 17.27124023 C-15.07241212 25.17829281 -20.71331348 32.99019265 -26.38818359 40.77929688 C-27.98296514 42.97652997 -29.56568875 45.18191727 -31.14453125 47.390625 C-38.87151671 58.18713661 -46.8221377 68.80173043 -54.94140625 79.30664062 C-56.38143165 81.19069663 -57.79898699 83.0920435 -59.19921875 85.00585938 C-65.39667504 93.35917423 -72.29480529 100.69741084 -79.70507812 107.98632812 C-81.63686484 109.88667172 -83.55751196 111.7977407 -85.4765625 113.7109375 C-91.48144596 119.67814364 -97.50849813 125.55786186 -104 131 C-105.05369059 131.90980293 -106.10709023 132.81994297 -107.16015625 133.73046875 C-120.47217806 145 -120.47217806 145 -125 145 C-124.43836709 140.2078854 -122.99094598 136.31869591 -120.8125 132.0625 C-120.47226807 131.39226807 -120.13203613 130.72203613 -119.78149414 130.03149414 C-116.40260239 123.53071318 -112.70152522 117.22121563 -108.9375 110.9375 C-108.36040283 109.96240479 -107.78330566 108.98730957 -107.1887207 107.98266602 C-104.15839908 103.0073766 -101.12363202 98.73897641 -96.84158707 94.77919006 C-95.04409114 93.04259724 -93.43391961 91.2403353 -91.81536865 89.3371582 C-87.87632473 84.79886055 -83.69503077 80.54010128 -79.45019531 76.2890625 C-78.62493851 75.45884079 -77.7996817 74.62861908 -76.94941711 73.77323914 C-74.24507295 71.05440188 -71.53694894 68.33937358 -68.828125 65.625 C-67.41726786 64.2098425 -66.006411 62.79468473 -64.59559035 61.37949085 C-60.67566441 57.44780708 -56.75364979 53.51821896 -52.82957292 49.59067822 C-47.76064895 44.51725343 -42.69837338 39.43731366 -37.64163709 34.35174179 C-33.72149582 30.4100249 -29.79564833 26.47405196 -25.86537433 22.54243851 C-23.52156957 20.19758498 -21.18100198 17.84964971 -18.84488678 15.49713135 C-16.24764102 12.88293494 -13.64121487 10.27825106 -11.03222656 7.67578125 C-10.25919693 6.89353683 -9.4861673 6.11129242 -8.68971252 5.30534363 C-7.98050156 4.60170181 -7.27129059 3.89806 -6.54058838 3.1730957 C-5.92562626 2.55666702 -5.31066414 1.94023834 -4.6770668 1.30513 C-3 0 -3 0 0 0 Z " fill="#7D7A79" transform="translate(1335,111)"/>
<path d="M0 0 C0.49560684 7.57349204 -1.09442648 12.92518225 -4 19.875 C-4.75420955 21.72485179 -5.50440342 23.57634743 -6.25 25.4296875 C-6.58515625 26.23647949 -6.9203125 27.04327148 -7.265625 27.87451172 C-8.16328305 30.09779068 -8.16328305 30.09779068 -8 33 C-7.55269531 32.55269531 -7.10539062 32.10539062 -6.64453125 31.64453125 C-4.76302083 29.76302083 -2.88151042 27.88151042 -1 26 C-0.22269531 25.21753906 0.55460937 24.43507812 1.35546875 23.62890625 C24.37703722 0.74335886 24.37703722 0.74335886 36.625 -0.3125 C40 0 40 0 41.9375 1.0625 C43.62061569 4.13171096 43.25909685 6.52810222 43 10 C42.05705308 13.04561866 40.73972269 15.87240652 39.375 18.75 C38.98473633 19.59763916 38.59447266 20.44527832 38.19238281 21.31860352 C34.07662199 30.11529552 29.55191941 38.71327113 24.96240234 47.27050781 C21.02642941 54.68868793 17.8379178 62.09864791 15 70 C18.63 69.01 22.26 68.02 26 67 C26.66 68.32 27.32 69.64 28 71 C19.1664181 76.68710693 9.68681639 82.27135343 -1 83 C-1.33486126 61.28185571 14.08020699 38.53136537 23.62670898 19.78271484 C24.93395523 17.20600202 26.08430633 14.74708102 27 12 C4.23553691 21.87891794 -12.37259477 45.48547019 -23.09375 67.1796875 C-23.43583496 67.86111816 -23.77791992 68.54254883 -24.13037109 69.24462891 C-24.7736469 70.54160178 -25.39783871 71.84829305 -25.99853516 73.16552734 C-27.74524832 76.69656925 -28.96888291 77.98355488 -32.49609375 79.84765625 C-33.65238281 80.22792969 -34.80867188 80.60820312 -36 81 C-37.09634766 81.36158203 -37.09634766 81.36158203 -38.21484375 81.73046875 C-39.80989583 82.15364583 -41.40494792 82.57682292 -43 83 C-42.34831302 78.03335528 -40.23354729 73.91754495 -38.125 69.4375 C-34.18397694 60.8820442 -30.6178296 52.20950868 -27.1875 43.4375 C-26.73197754 42.273396 -26.27645508 41.10929199 -25.80712891 39.90991211 C-20.07626717 26.30804077 -20.07626717 26.30804077 -17 12 C-19.97 12.66 -22.94 13.32 -26 14 C-26.33 12.35 -26.66 10.7 -27 9 C-21.23478402 6.6221805 -15.42418575 4.37881394 -9.5625 2.25 C-8.38816406 1.82203125 -7.21382813 1.3940625 -6.00390625 0.953125 C-3 0 -3 0 0 0 Z " fill="#5D4F99" transform="translate(328,115)"/>
<path d="M0 0 C1.24523437 0.00902344 2.49046875 0.01804687 3.7734375 0.02734375 C5.18496094 0.04474609 5.18496094 0.04474609 6.625 0.0625 C7.57965783 2.23217689 7.76901212 3.62578793 7.0234375 5.88671875 C6.26629615 7.6309743 5.44890802 9.34877131 4.625 11.0625 C3.58327637 11.03893433 3.58327637 11.03893433 2.52050781 11.01489258 C-0.69457509 10.95166866 -3.90952652 10.91323609 -7.125 10.875 C-8.21683594 10.84986328 -9.30867188 10.82472656 -10.43359375 10.79882812 C-29.28220062 10.6315328 -43.85035585 18.17911053 -57.375 31.0625 C-65.17776064 39.17256114 -73.47645041 51.49743561 -73.5625 63.0625 C-73.58376953 64.361875 -73.58376953 64.361875 -73.60546875 65.6875 C-73.53755938 68.32971537 -73.53755938 68.32971537 -71.375 71.0625 C-61.55161256 70.57133063 -53.98034093 61.52480953 -47.72998047 54.66455078 C-43.67821039 49.87397145 -40.51056127 44.47673839 -37.375 39.0625 C-36.88257813 38.22074219 -36.39015625 37.37898438 -35.8828125 36.51171875 C-31.89165951 29.13676213 -29.71152546 21.07628519 -27.375 13.0625 C-25.5 13.375 -25.5 13.375 -23.375 14.0625 C-20.37189944 18.56715085 -20.80262662 22.78011438 -21.375 28.0625 C-22.87073709 33.35284105 -24.95229325 37.75714681 -28.375 42.0625 C-23.92 41.5675 -23.92 41.5675 -19.375 41.0625 C-20.17318777 46.66090034 -22.61143229 51.59480918 -24.84765625 56.73632812 C-26.59684524 60.85314322 -27.86275935 64.57327989 -28.375 69.0625 C-25.075 67.7425 -21.775 66.4225 -18.375 65.0625 C-16.375 67.0625 -16.375 67.0625 -16.375 70.0625 C-37.43438242 81.0625 -37.43438242 81.0625 -45.375 81.0625 C-45.74104018 75.24398633 -44.57798588 71.10365263 -42.375 65.75 C-40.24347479 61.04447244 -40.24347479 61.04447244 -39.375 56.0625 C-40.24125 56.990625 -41.1075 57.91875 -42 58.875 C-51.56665355 68.36465836 -65.40669535 81.11485418 -79.5625 81.6875 C-83.45358823 81.04961668 -84.02090056 80.88186393 -86.375 78.0625 C-89.50730438 71.79789125 -86.89472299 63.76015097 -84.828125 57.53125 C-80.40696118 46.97750412 -73.29410353 38.2171159 -65.375 30.0625 C-64.82585937 29.45148438 -64.27671875 28.84046875 -63.7109375 28.2109375 C-48.46326874 11.76148204 -22.40070149 -0.21132737 0 0 Z " fill="#5D509A" transform="translate(448.375,115.9375)"/>
<path d="M0 0 C1.8125 2.4375 1.8125 2.4375 2 5.625 C-0.96797643 15.15376644 -7.57425384 22.19362672 -16.12109375 27.1328125 C-23.93202777 31.16992446 -32.17829651 35.06125179 -41.1875 33.4375 C-42.953125 31.91796875 -42.953125 31.91796875 -44.1875 30.4375 C-51.49546682 41.15984476 -57.0995009 54.19740775 -55.1875 67.4375 C-54.00163596 69.76587039 -54.00163596 69.76587039 -52.1875 71.4375 C-45.79814207 72.55843999 -41.96451871 70.76761478 -36.6328125 67.25390625 C-26.34531598 59.61223551 -19.99668061 49.17190068 -15.1875 37.4375 C-14.1975 37.4375 -13.2075 37.4375 -12.1875 37.4375 C-10.38652296 41.03945408 -11.20380294 44.69167052 -12.1875 48.4375 C-19.69641359 63.80356665 -34.48035588 75.24464236 -50.1875 81.4375 C-54.3634894 82.50518867 -57.79073002 82.74789333 -62 81.8125 C-65.63237879 79.52929048 -67.67265372 77.45135451 -68.76171875 73.19140625 C-71.08732308 56.362033 -63.61942339 40.93575314 -54.25 27.5 C-43.72833729 13.81978748 -18.95889868 -9.29357779 0 0 Z " fill="#5E509A" transform="translate(799.1875,116.5625)"/>
<path d="M0 0 C-0.09048666 1.43842591 -0.1985426 2.87574301 -0.3125 4.3125 C-0.39951172 5.51326172 -0.39951172 5.51326172 -0.48828125 6.73828125 C-1.93155715 15.93778793 -5.18653681 24.4413134 -8.75 33 C-9.22099121 34.14573486 -9.69198242 35.29146973 -10.17724609 36.47192383 C-13.59615463 44.74317522 -17.12802482 52.96390852 -20.67773438 61.1796875 C-25.73326172 72.88081776 -30.76413451 84.56538256 -35.25 96.5 C-35.59627441 97.41740967 -35.94254883 98.33481934 -36.29931641 99.2800293 C-40.49368213 110.37124761 -40.49368213 110.37124761 -42 122 C-37.12637153 121.54663921 -34.60957611 120.2910841 -31 117 C-29.68 117.66 -28.36 118.32 -27 119 C-28.51294022 123.23045069 -31.60058688 125.16448481 -35.1875 127.5625 C-36.01604492 128.14161133 -36.01604492 128.14161133 -36.86132812 128.73242188 C-41.31443777 131.7683979 -46.21909759 135.06320233 -51.75 134.9375 C-54.58596569 133.75584763 -55.40417446 132.6089058 -57 130 C-59.60791412 116.15632252 -51.40369616 101.12963305 -46.23886108 88.56628418 C-45.28181652 86.23784883 -44.33136596 83.90680377 -43.38208008 81.57519531 C-40.05752559 73.41946042 -36.70346418 65.27607213 -33.33448792 57.13859558 C-31.6847648 53.15153791 -30.04009909 49.1624017 -28.39559937 45.17318726 C-27.20801884 42.29964857 -26.01201341 39.42971517 -24.81567383 36.55981445 C-24.07854442 34.77441408 -23.34179119 32.98885833 -22.60546875 31.203125 C-22.2696579 30.40454575 -21.93384705 29.60596649 -21.58786011 28.78318787 C-19.45513229 23.57913258 -18.08953918 18.52014873 -17 13 C-19.97 13.66 -22.94 14.32 -26 15 C-26.33 13.35 -26.66 11.7 -27 10 C-26.34402832 9.7326001 -25.68805664 9.4652002 -25.01220703 9.18969727 C-22.04947345 7.98144188 -19.08723139 6.77198605 -16.125 5.5625 C-15.09246094 5.14162109 -14.05992187 4.72074219 -12.99609375 4.28710938 C-12.00996094 3.88427734 -11.02382813 3.48144531 -10.0078125 3.06640625 C-9.09660645 2.69459229 -8.18540039 2.32277832 -7.24658203 1.93969727 C-2.60924916 0 -2.60924916 0 0 0 Z " fill="#5D4F99" transform="translate(497,63)"/>
<path d="M0 0 C1.91171997 0.00507568 1.91171997 0.00507568 3.86206055 0.01025391 C29.98584198 0.1529071 29.98584198 0.1529071 39.875 3.125 C40.205 3.785 40.535 4.445 40.875 5.125 C31.05306206 8.98361848 21.60663831 10.71919268 11.125 11.75 C9.90232422 11.87737549 8.67964844 12.00475098 7.41992188 12.13598633 C2.1933977 12.66552307 -2.99823589 13.15009928 -8.25 13.3046875 C-24.56938102 14.17833065 -37.62450378 23.9990185 -51.00683594 32.52099609 C-55.0342031 35.08043214 -59.10561105 37.56122631 -63.1953125 40.01953125 C-63.83784973 40.40602844 -64.48038696 40.79252563 -65.14239502 41.19073486 C-66.40234579 41.94829944 -67.662414 42.70566872 -68.92260742 43.46282959 C-71.80009061 45.19441324 -74.67052788 46.93721275 -77.5390625 48.68359375 C-78.4770166 49.25392334 -79.4149707 49.82425293 -80.38134766 50.41186523 C-82.40142791 51.67320205 -84.38621394 52.99149963 -86.34912109 54.34008789 C-89.125 56.125 -89.125 56.125 -91.125 56.125 C-88.89309947 50.07250755 -85.50577674 44.68220298 -82.20532227 39.16943359 C-81.44828092 37.89794053 -80.6988054 36.6219098 -79.95727539 35.34130859 C-69.65854421 17.56114226 -55.10335442 11.46978313 -36.375 4.75 C-35.42931152 4.40396729 -34.48362305 4.05793457 -33.50927734 3.70141602 C-22.4644581 -0.1355392 -11.59258061 -0.04427271 0 0 Z " fill="#BEBDBD" transform="translate(1134.125,-0.125)"/>
<path d="M0 0 C2.10399736 0.00531495 4.20777709 0.00005419 6.31176758 -0.00634766 C10.35580017 -0.01057156 14.39546436 0.04855569 18.4387207 0.13037109 C19.55641846 0.14729004 20.67411621 0.16420898 21.82568359 0.18164062 C29.93044325 0.5276322 37.0506942 2.6393564 44.57763672 5.52099609 C46.49608251 6.25340947 48.42375939 6.95519814 50.35473633 7.65380859 C64.2917741 12.79633649 75.40914003 18.61367388 83.1887207 31.50537109 C83.61266113 32.19566406 84.03660156 32.88595703 84.47338867 33.59716797 C85.80387025 35.76974523 87.12286993 37.94890547 88.4387207 40.13037109 C88.87925781 40.85901367 89.31979492 41.58765625 89.77368164 42.33837891 C92.34360542 46.59356125 94.89741949 50.85803861 97.4387207 55.13037109 C93.76375458 55.13037109 92.36254522 54.11047284 89.22387695 52.22802734 C88.15838623 51.59300293 87.09289551 50.95797852 85.99511719 50.30371094 C84.83037367 49.600282 83.66574446 48.89666377 82.5012207 48.19287109 C81.2997709 47.47314559 80.09802456 46.7539149 78.89599609 46.03515625 C75.07058804 43.7439805 71.25387415 41.4385713 67.4387207 39.13037109 C66.80156128 38.74512268 66.16440186 38.35987427 65.50793457 37.96295166 C58.86217641 33.94396287 52.22329125 29.91383518 45.59106445 25.87255859 C44.01494385 24.92268066 44.01494385 24.92268066 42.40698242 23.95361328 C40.52615142 22.7983208 38.66503676 21.60974778 36.83374023 20.37744141 C30.47800845 16.19593906 24.95695694 14.90640525 17.4387207 14.13037109 C16.11373003 13.98072134 14.78886609 13.82994657 13.46411133 13.67822266 C8.29283748 13.09778573 3.11828419 12.54737319 -2.05981445 12.03125 C-10.35556128 11.19751569 -18.48935723 10.12134026 -26.6081543 8.18505859 C-27.29435852 8.02780304 -27.98056274 7.87054749 -28.68756104 7.70852661 C-30.58764648 7.22363281 -30.58764648 7.22363281 -33.5612793 6.13037109 C-33.8912793 5.14037109 -34.2212793 4.15037109 -34.5612793 3.13037109 C-32.56151233 2.81638329 -30.56145233 2.50426167 -28.5612793 2.19287109 C-27.4475293 2.01884766 -26.3337793 1.84482422 -25.1862793 1.66552734 C-23.9900293 1.48892578 -22.7937793 1.31232422 -21.5612793 1.13037109 C-20.42045898 0.94603516 -19.27963867 0.76169922 -18.10424805 0.57177734 C-12.09964424 -0.15983965 -6.03939784 -0.01810079 0 0 Z " fill="#BEBDBD" transform="translate(1263.561279296875,-0.13037109375)"/>
<path d="M0 0 C0.89009766 -0.01998047 1.78019531 -0.03996094 2.69726562 -0.06054688 C11.12943197 -0.05438751 18.42062908 2.48174638 24.5625 8.4375 C26.27055274 11.12158288 26.5625 12.19919533 26.5625 15.4375 C24.4836618 15.74091425 22.398927 16.0041325 20.3125 16.25 C19.15234375 16.40082031 17.9921875 16.55164063 16.796875 16.70703125 C13.5625 16.4375 13.5625 16.4375 11.3125 14.03125 C10.735 13.1753125 10.1575 12.319375 9.5625 11.4375 C3.65402654 8.61754676 -2.00420745 8.69513956 -8.125 10.5625 C-11.91566926 12.70816185 -14.7620711 14.36434619 -16.4375 18.4375 C-17.35616548 25.81307145 -17.30037775 31.94636886 -13.4375 38.4375 C-9.43067594 42.5526166 -6.25492991 42.71508943 -0.5625 42.8125 C4.78680652 42.66516741 9.47514572 42.06545337 14.5625 40.4375 C14.5625 38.1275 14.5625 35.8175 14.5625 33.4375 C9.9425 33.4375 5.3225 33.4375 0.5625 33.4375 C0.5625 30.4675 0.5625 27.4975 0.5625 24.4375 C9.4725 24.4375 18.3825 24.4375 27.5625 24.4375 C27.5625 31.3675 27.5625 38.2975 27.5625 45.4375 C14.62255875 52.17335983 1.75696444 54.87681204 -12.75390625 51.71484375 C-20.53039084 48.78233735 -26.01462503 44.10124223 -29.515625 36.51953125 C-31.55242533 29.71005895 -31.86997435 21.62764524 -29.55078125 14.84375 C-28.34914547 12.76783436 -27.09997103 11.16294342 -25.4375 9.4375 C-24.90640625 8.87675781 -24.3753125 8.31601562 -23.828125 7.73828125 C-16.84036639 1.11914293 -9.28977734 -0.07367523 0 0 Z " fill="#FDC906" transform="translate(1203.4375,23.5625)"/>
<path d="M0 0 C6.31126794 2.28255622 11.52178572 6.20150059 17 10 C17.57524414 10.39815918 18.15048828 10.79631836 18.74316406 11.20654297 C29.32348495 18.56358403 39.26114312 26.55965737 49 35 C43.80420058 41.2464508 38.15768936 46.90622511 32.36523438 52.59570312 C31.64787109 53.30533203 30.93050781 54.01496094 30.19140625 54.74609375 C29.55404541 55.37185303 28.91668457 55.9976123 28.26000977 56.64233398 C26.4816033 58.49758636 24.82956522 60.37162803 23.16943359 62.32836914 C17.17304719 69.22180297 10.56667722 75.55556348 4.09765625 82 C2.65012566 83.44566272 1.20281776 84.89154846 -0.24427795 86.33764648 C-4.03136477 90.12093719 -7.82144632 93.90121361 -11.61218262 97.68084717 C-15.48872884 101.54711645 -19.36240324 105.41626075 -23.23632812 109.28515625 C-30.821428 116.85957012 -38.40969819 124.43079924 -46 132 C-46.99 131.67 -47.98 131.34 -49 131 C-46.12791947 126.50898728 -42.9927553 122.46008416 -39.5 118.4375 C-38.97736572 117.83180176 -38.45473145 117.22610352 -37.91625977 116.60205078 C-32.8872554 110.80751768 -27.69119433 105.17468968 -22.45703125 99.56591797 C-20.10307066 97.03604142 -17.77016869 94.48699659 -15.4375 91.9375 C-14.53519984 90.95178301 -13.63285617 89.96610585 -12.73046875 88.98046875 C-12.28364746 88.49239746 -11.83682617 88.00432617 -11.37646484 87.50146484 C-9.95741269 85.95354524 -8.5356628 84.40814167 -7.11328125 82.86328125 C-1.99963498 77.30629035 3.06703545 71.7186585 8 66 C8.93737323 64.92827452 9.87488592 63.85667102 10.8125 62.78515625 C22.47768083 50.13435486 22.47768083 50.13435486 30 35 C29.56768066 34.60321045 29.13536133 34.2064209 28.68994141 33.79760742 C5.93665194 12.85430738 5.93665194 12.85430738 0 3 C0 2.01 0 1.02 0 0 Z " fill="#A29E9D" transform="translate(1356,34)"/>
<path d="M0 0 C-0.60908765 3.54232555 -2.00829977 5.59724102 -4.25 8.375 C-4.88550781 9.16390625 -5.52101563 9.9528125 -6.17578125 10.765625 C-6.77777344 11.50296875 -7.37976562 12.2403125 -8 13 C-9.2065625 14.546875 -9.2065625 14.546875 -10.4375 16.125 C-13.04949888 19.05553533 -15.81391245 21.51575372 -18.796875 24.0546875 C-22.71467416 27.5140208 -26.34408054 31.26791555 -30 35 C-25.48354854 50.83086079 -8.71157966 65.26302983 2.33984375 77.125 C4.39421494 79.34528957 6.40336649 81.58217306 8.375 83.875 C11.77214694 87.80503273 15.3239876 91.58464068 18.875 95.375 C26.38372506 103.39610827 33.76617678 111.49586759 40.875 119.875 C41.33994873 120.4230127 41.80489746 120.97102539 42.28393555 121.53564453 C49 129.50243917 49 129.50243917 49 132 C45.42499608 131.41814387 43.75689421 130.13178395 41.21853638 127.59275818 C40.48126312 126.86249924 39.74398987 126.1322403 38.984375 125.37985229 C38.18531738 124.57315094 37.38625977 123.76644958 36.56298828 122.93530273 C35.71372772 122.08969284 34.86446716 121.24408295 33.98947144 120.37284851 C31.66143551 118.05153449 29.34026154 115.72361915 27.02225351 113.39229846 C24.59017129 110.94888666 22.15036727 108.51320682 19.7116394 106.07643127 C15.61259077 101.97826589 11.51956553 97.87415973 7.43017578 93.76635742 C2.71614838 89.03122544 -2.00657721 84.30491324 -6.73429286 79.58345073 C-11.29241619 75.03104593 -15.84480715 70.47295117 -20.39447403 65.91209602 C-22.32479241 63.97715798 -24.25695175 62.04408707 -26.1906395 60.1125164 C-28.90013016 57.40339839 -31.60300319 54.68784426 -34.30419922 51.97045898 C-35.09920837 51.17792725 -35.89421753 50.38539551 -36.71331787 49.56884766 C-41.25223284 44.9866472 -45.29367295 40.28136525 -49 35 C-35.80584047 22.12552275 -20.37274434 12.06475825 -5 2 C-2 0 -2 0 0 0 Z " fill="#A29E9D" transform="translate(1048,34)"/>
<path d="M0 0 C0.35430397 6.38470209 -0.67783691 10.92073449 -3.0625 16.8125 C-3.40031494 17.67689697 -3.73812988 18.54129395 -4.08618164 19.43188477 C-6.55521297 25.65177165 -9.18733017 31.80042705 -11.8359375 37.9453125 C-12.17179367 38.72506943 -12.50764984 39.50482635 -12.85368347 40.30821228 C-14.55042748 44.24161817 -16.25789133 48.16986658 -17.98266602 52.09106445 C-18.62260757 53.55938621 -19.26250217 55.02772843 -19.90234375 56.49609375 C-20.3487471 57.49813339 -20.3487471 57.49813339 -20.8041687 58.52041626 C-22.45998156 62.33771665 -23.49980964 65.86814863 -24 70 C-21.03 70 -18.06 70 -15 70 C-14.67 71.32 -14.34 72.64 -14 74 C-17.76693513 75.67557981 -21.53915174 77.33891867 -25.3125 79 C-26.38435547 79.47695312 -27.45621094 79.95390625 -28.56054688 80.4453125 C-29.58857422 80.89648438 -30.61660156 81.34765625 -31.67578125 81.8125 C-32.62364502 82.23144531 -33.57150879 82.65039062 -34.5480957 83.08203125 C-37 84 -37 84 -40 84 C-39.97400146 76.52541997 -38.98256104 70.076718 -36.43359375 63.09375 C-36.17065018 62.36180923 -35.9077066 61.62986847 -35.63679504 60.87574768 C-32.34680813 51.93316099 -28.24860984 43.36431133 -24.15454102 34.76879883 C-23.14948165 32.65098664 -22.15820226 30.52711931 -21.16796875 28.40234375 C-20.86384567 27.77512924 -20.5597226 27.14791473 -20.24638367 26.50169373 C-18.1236321 21.92764912 -17.42367427 17.9625032 -17 13 C-20.3 13.66 -23.6 14.32 -27 15 C-27.33 13.35 -27.66 11.7 -28 10 C-24.08820439 8.32173077 -20.16982376 6.65942196 -16.25 5 C-15.13882812 4.52304688 -14.02765625 4.04609375 -12.8828125 3.5546875 C-11.81289063 3.10351562 -10.74296875 2.65234375 -9.640625 2.1875 C-8.65610352 1.76855469 -7.67158203 1.34960938 -6.65722656 0.91796875 C-4 0 -4 0 0 0 Z " fill="#5D4F99" transform="translate(293,114)"/>
<path d="M0 0 C2 2 2 2 2.1875 5.125 C1.20095622 10.73890387 -3.59864749 13.88325277 -8 17 C-14.4821295 20.96056792 -21.63749671 20.30302986 -29 20 C-24.98605459 11.42475299 -17.56571146 4.43740529 -8.88671875 0.58203125 C-5.82453582 -0.36261731 -3.15616228 -0.37873947 0 0 Z " fill="#FAFAFC" transform="translate(785,124)"/>
<path d="M0 0 C2.93453261 0.36681658 3.86437246 0.86437246 6 3 C6.93002412 16.33034578 0.51145134 29.21849869 -5 41 C-5.33 41 -5.66 41 -6 41 C-8.76995604 28.92299165 -8.00253391 13.0046455 -2 2 C-1.34 1.34 -0.68 0.68 0 0 Z " fill="#FAF9FB" transform="translate(170,70)"/>
<path d="M0 0 C2 2 2 2 2.375 4.875 C2 8 2 8 0.375 10.375 C-2.64835963 12.44361448 -4.40588208 12.46879799 -8 12 C-10 10 -10 10 -10.3125 6.5625 C-10 3 -10 3 -8.9375 1.0625 C-5.92115289 -0.59162584 -3.36333392 -0.30575763 0 0 Z " fill="#5D509A" transform="translate(301,89)"/>
<path d="M0 0 C0.33 0 0.66 0 1 0 C1 32.67 1 65.34 1 99 C0.67 99 0.34 99 0 99 C-0.33 68.31 -0.66 37.62 -1 6 C-1.99 6.495 -1.99 6.495 -3 7 C-1.125 1.125 -1.125 1.125 0 0 Z " fill="#DCD6DC" transform="translate(1264,52)"/>
</svg>
