<svg xmlns="http://www.w3.org/2000/svg" width="192" height="192" fill="none" viewBox="0 0 192 192"><g stroke-linecap="round" stroke-linejoin="round" stroke-miterlimit="1.5" clip-path="url(#aivdMxt6Vza)"><path fill="#a1ccfa" fill-rule="evenodd" stroke="#a1ccfa" d="M23.874 38.509c-.057 2.386-.496 116.625-.107 116.619.315-.007 143.261-.056 143.494-.089.128-.018.347-116.866.171-117.026-.154-.14-140.683.466-143.558.496" clip-rule="evenodd"/><path stroke="#17171c" stroke-width="3" d="M83.304 147.335c-2.716.018-50.806.244-50.81-.143-.02-3.029.177-49.725.01-60.431m85.116 35.271c-2.692-3.076-19.121-18.649-19.214-18.399-.141.381-6.366 18.167-7.252 17.467-10.703-8.449-29.305-26.043-36.26-32.247m48.356-42.079c15.253-.118 49.714.201 53.519.236.391.003.144 35.797.167 42.321"/><path fill="#3583ff" fill-rule="evenodd" stroke="#17171c" stroke-width="4.5" d="M34.323 55.929c8.972 9.008 52.02 51.977 54.236 53.085.504.252 6.745-18.252 7.122-18.064 1.585.793 37.071 34.483 38.464 35.876.265.266-7.306 6.9-7.011 7.031.586.262 27.438 9.682 27.988 9.23.697-.572-5.952-28.913-6.371-28.512-1.368 1.309-6.064 5.467-7.356 6.383-.177.125-36.944-35.131-48.68-46.867-.722-.722-7.64 15.953-8.262 16.576-.099.099-41.828-39.282-43.665-41.108-.262-.261-5.543 5.287-6.465 6.37" clip-rule="evenodd"/><path stroke="#17171c" stroke-width="2.9961" d="M100.684 25.5c6.632-.086 54.592.198 65.259.212m-101.409-.027c6.052.048 21.969.007 25.79-.023m89.823 49.31s.013 63.751.013 78.992"/></g><defs><clipPath id="aivdMxt6Vza"><path fill="#fff" d="M0 0h192v192H0z"/></clipPath></defs></svg>