<svg xmlns="http://www.w3.org/2000/svg" width="192" height="192" fill="none" viewBox="0 0 192 192"><g stroke-linecap="round" stroke-linejoin="round" stroke-miterlimit="1.5" clip-path="url(#AASGjZGKd_a)"><path fill="#faa709" stroke="#faa709" d="M64.229 28.925c-.002 2.707-.004 6.03-.174 10.248l8.397-.062c.045-.757.046-1.734.047-2.814.003-4.247.008-10.066 2.713-10.147 5.665-.17 32.642-.903 34.639.101 2.266 1.139 2.6 6.214 2.613 12.56l8.055-.06c-.008-.677.009-1.988.031-3.631.036-2.794.086-6.546.045-9.765-.044-3.656-3.997-6.954-8.193-7.06-11.189-.285-31.78-.44-41.746.161-3.403.206-6.336 4.183-6.395 6.434a171 171 0 0 0-.032 4.035"/><path stroke="#17171c" stroke-width="3.0038" d="M64.051 39.173c.266-6.592.122-10.995.207-14.283.058-2.25 2.991-6.228 6.395-6.434 9.965-.6 30.557-.446 41.746-.16 4.196.105 8.149 3.403 8.193 7.059.064 5.111-.098 11.568-.077 13.396"/><path stroke="#17171c" stroke-width="3" d="M72.428 39.403c.292-3.523-.704-13.148 2.78-13.253 5.666-.171 32.643-.903 34.639.1 2.348 1.18 2.397 5.271 2.388 11.938"/><path fill="#97675d" fill-rule="evenodd" stroke="#97675d" stroke-width="1.0005" d="M17.305 39.754c-.57 8.921.603 88.477 2.171 93.169.745 2.226 139.619.081 146.653.375 1.7.071 1.534-90.566 1.045-93.672-.231-1.468-134.604.19-149.87.128" clip-rule="evenodd"/><path fill="#faa709" fill-rule="evenodd" stroke="#17171c" stroke-width="3.0038" d="M78.717 75.488c.011-.032.04 18.065.41 23.884.14 2.199 21.306.325 26.943.908.541.056.748-23.118.245-24.273-.365-.837-23.95-.519-27.598-.519" clip-rule="evenodd"/><path fill="#97675d" fill-rule="evenodd" stroke="#17171c" stroke-width="2.0025" d="M85.55 83.033c.076 2.294-.25 10.708.28 10.873 1.126.35 13.661.299 13.699-.152.114-1.387.183-10.668-.255-10.685-4.09-.164-9.385-.036-13.725-.036" clip-rule="evenodd"/><path stroke="#17171c" stroke-width="2.0025" d="M26.776 75.022c.14 11.134-.052 18.594.427 31.092m.061 4.963c-.107 2.704.111 11.156.111 13.597m57.581-84.925c.28 7.916.117 22.238.61 34.825"/><path stroke="#17171c" stroke-width="2.9988" d="M178.202 128.724c-.067-.201.273 21.09.357 24.589"/><path fill="#faa709" fill-rule="evenodd" stroke="#faa709" stroke-width="1.0035" d="M180.676 154.045c-3.608-1.579-8.753 2.546-6.154 6.362 1.585 2.327 5.36 2.41 6.958 1.212 2.296-1.722 2.781-5.364-.804-7.574" clip-rule="evenodd"/><path fill="#3583ff" fill-rule="evenodd" stroke="#17171c" stroke-width="2.9988" d="M106.82 133.556c-.111 5.187-.326 25.943.103 26.862 6.115 13.13 48.978 12.473 55.349 1.22.175-.308.115-28.425.046-28.425-.723 0-52.302.343-55.498.343" clip-rule="evenodd"/><path stroke="#17171c" stroke-width="2" d="M85.473 101.274c.017 7.538-.108 20.049.032 31.774"/><path stroke="#17171c" stroke-width="2.0025" d="M100.145 39.876c-.129 8.541.536 26.847.536 35.353m-.101 25.821c.009 8.688.194 24.04.194 32.547M97.11 9.294c5.598.017 25.97.002 27.061.02 5.093.086 4.321 3.339 4.628 16.882M18.383 145.294c17.449.093 55.893-.3 68.958.099m30.054-72.191c5.027-.048 13.006.135 18.026.16"/><path stroke="#17171c" stroke-width="3.0038" d="M17.937 40.481c.248-.495 17.59 43.2 30.518 43.072 11.685-.115 21.329-.078 30.164-.018m28.266-.075c9.15-.053 18.771-.062 30.712-.552 8.639-.354 16.88-19.697 28.932-42.793"/><path stroke="#17171c" stroke-width="2.0025" d="M64.678 9.468c7.63-.056 15.91-.11 24.248-.152"/><path fill="#3583ff" fill-rule="evenodd" stroke="#17171c" stroke-width="2.9988" d="M92.05 128.631c12.789-5.84 41.829-20.055 42.46-20.068.8-.016 43.704 19.903 43.689 19.91-12.485 5.834-40.533 20.259-42.888 20.343-2.204.078-32.784-15.252-43.26-20.185" clip-rule="evenodd"/><path stroke="#17171c" stroke-width="1.9953" d="M97.924 163.983c-.195 7.949 16.53 16.142 34.53 15.023"/></g><defs><clipPath id="AASGjZGKd_a"><path fill="#fff" d="M0 0h192v192H0z"/></clipPath></defs></svg>