<svg xmlns="http://www.w3.org/2000/svg" width="192" height="192" fill="none" viewBox="0 0 192 192"><g stroke-linecap="round" stroke-linejoin="round" stroke-miterlimit="1.5" clip-path="url(#9G8aUcWfYSa)"><path fill="#c71f16" fill-rule="evenodd" stroke="#c71f16" d="M67.157 28.485c5.128.14 55.196-.447 55.203.616.008 1.393-.779 42.229-.161 85.412.007.426 25.729-.505 25.111.297-8.978 11.655-40.795 53.749-52.165 53.492-10.277-.231-43.117-41.645-53.765-53.992-1.144-1.328 26.719.079 26.771-.782.082-1.329-.994-85.044-.994-85.044" clip-rule="evenodd"/><path stroke="#17171c" stroke-width="2.9959" d="M79.949 40.117c-.013 2.146.025 11.407.081 22.418m.033 6.208c.094 17.873.211 37.597.211 38.87"/><path stroke="#17171c" stroke-width="3" d="M137.501 144.115c-8.67 10.446-17.885 20.017-29.202 28.959m33.225-33.889c3.687-4.303 12.018-14.793 13.984-17.742"/><path stroke="#17171c" stroke-width="2.9959" d="M67.884 18.43c16.154-.069 41.153-.125 52.633-.125"/></g><defs><clipPath id="9G8aUcWfYSa"><path fill="#fff" d="M0 0h192v192H0z"/></clipPath></defs></svg>