<svg xmlns="http://www.w3.org/2000/svg" width="192" height="192" fill="none" viewBox="0 0 192 192"><g stroke-linecap="round" stroke-linejoin="round" stroke-miterlimit="1.5" clip-path="url(#5633OPywtia)"><path fill="#3583ff" fill-rule="evenodd" stroke="#3583ff" stroke-width=".9983" d="M129.737 40.318c.074-.006-.936-1.425-.835-2.643.24-2.856 1.061-7.227.226-10.61-1.401-5.677-5.831-7.098-5.517-7.065 9.929 1.052 24.684 17.279 25.837 30.932.017.206-1.259-8.705-8.207-9.401-10.599-1.064-10.859-.48-11.504-1.213" clip-rule="evenodd"/><path fill="#a1ccfa" fill-rule="evenodd" stroke="#17171c" stroke-width="3" d="M46.318 164.938c-.23-.746-3.255-143.286-3.232-144.1.014-.481 47.196-.547 78.625-.395 11.366.054 5.518 17.43 8.085 19.726 3.262 2.92 19.283-2.568 19.294 11.995.035 41.725-.193 110.938-.26 111.928-.067.975-102.369 1.311-102.512.846" clip-rule="evenodd"/><path stroke="#17171c" stroke-width="2" d="M40.398 176.24c6.424.348 45.348.003 57.483.003m-63.373-28.26c.03.599.398 11.078.609 15.459M32.049 80.85c.296 4.736 2.218 60.725 2.237 61.172M160.567 20.75c-.071 5.145-.386 80.837-.173 88.719"/><path fill="#3583ff" fill-rule="evenodd" stroke="#3583ff" d="M81.083 145.717c2.786-.077 29.993.242 29.996-.335.005-.757-.423-22.947-.087-46.413.004-.231 13.981.275 13.645-.16-4.879-6.334-22.167-29.208-28.346-29.068-5.584.126-23.43 22.63-29.215 29.339-.622.722 14.519-.043 14.547.425.044.722-.54 46.212-.54 46.212" clip-rule="evenodd"/><path stroke="#17171c" stroke-width="1.9969" d="M88.034 139.396c-.021-3.196.176-35.459.176-36.676"/></g><defs><clipPath id="5633OPywtia"><path fill="#fff" d="M0 0h192v192H0z"/></clipPath></defs></svg>