<svg xmlns="http://www.w3.org/2000/svg" width="192" height="192" fill="none" viewBox="0 0 192 192"><g stroke-linecap="round" stroke-linejoin="round" stroke-miterlimit="1.5" clip-path="url(#3nXyu7UXbSa)"><path fill="#97675d" fill-rule="evenodd" stroke="#97675d" d="M38.223 26.4c-16.161-.164-18.126 1.883-18.254 16.104-.208 23.388.156 69.579.457 93.351.205 16.075 4.513 15.472 17.957 15.627 27.931.321 81.833.409 111.013-.372 16.78-.451 19.874-1.798 20.21-15.265.426-17.052-.72-66.835-1.006-81.65-.053-2.757-1.964-4.738-5.183-4.77-19.416-.197-87.94-.307-91.382-.372-.255-.006-8.436-22.438-11.5-22.47-8.497-.09-16.286-.121-22.312-.183" clip-rule="evenodd"/><path fill="#c71f16" fill-rule="evenodd" stroke="#17171c" stroke-width="4.5" d="M163.76 65.565c-16.764-.148-111.818-.01-137.47.223-4.057.037-6.368 3.883-6.354 7.047.067 15.75.276 50.111.49 64.978.204 14.09 4.512 13.562 17.957 13.698 27.931.281 81.833.358 111.012-.327 16.781-.395 19.875-1.575 20.211-13.38.426-14.948-.377-55.07-.662-68.057-.054-2.417-1.966-4.153-5.184-4.182" clip-rule="evenodd"/><path stroke="#17171c" stroke-width="3" d="M179.297 79.799c.026 19.988-.216 44.989-.216 59.889m-146.564 21.71c10.713-.17 40.565-.278 47.396-.261m8.265-.27c8.681-.091 17.143-.023 26.678-.142m-34.975-120.6c5.421.055 48.358.371 63.182.371"/><path fill="#c71f16" stroke="#c71f16" d="M94.135 142.594c-.365.364-.902-.788-1.018-.904-.805-.806-13.951-23.746-19.157-32.85l8.563-7.441c3.063 5.105 8.08 14.094 8.334 13.841.83-.831 13.855-32.781 18.651-41.936l13.808 5.124c-7.12 13.682-19.778 38.306-23.304 48.002-1.356 3.729-5.211 15.497-5.877 16.164"/><path stroke="#17171c" stroke-width="3.0042" d="M70.181 119.714c1.794 3.002 12.4 21.281 14.163 24.043"/></g><defs><clipPath id="3nXyu7UXbSa"><path fill="#fff" d="M0 0h192v192H0z"/></clipPath></defs></svg>