<svg xmlns="http://www.w3.org/2000/svg" width="192" height="192" fill="none" viewBox="0 0 192 192"><g clip-path="url(#6lcts_eH-Ka)"><path fill="#faa709" fill-rule="evenodd" stroke="#faa709" stroke-linecap="round" stroke-linejoin="round" stroke-miterlimit="1.5" d="M37.661 48.718c-16.161-.13-18.126 1.487-18.254 12.72-.208 18.473.156 54.957.457 73.734.204 12.697 4.512 12.221 17.957 12.343 27.931.253 81.833.323 111.012-.294 16.781-.356 19.875-1.42 20.211-12.057.591-18.678.072-55.001-.706-73.92-.432-10.455-2.139-12.568-19.557-12.743-29.071-.294-84.76.429-111.12.217" clip-rule="evenodd"/><path fill="#f5e4e2" fill-rule="evenodd" stroke="#17171c" stroke-linecap="round" stroke-linejoin="round" stroke-miterlimit="1.5" stroke-width="2" d="M43.453 55.251c-14.608-.112-16.384 1.29-16.499 11.036-.189 16.027.14 47.682.413 63.972.185 11.016 4.078 10.603 16.23 10.709 25.246.22 73.966.28 100.34-.255 15.167-.309 17.963-1.232 18.267-10.46.534-16.205.065-47.72-.638-64.134-.39-9.071-1.933-10.904-17.676-11.056-26.277-.255-76.612.372-100.437.188" clip-rule="evenodd"/><path fill="#fcb4cd" fill-rule="evenodd" stroke="#17171c" stroke-linecap="round" stroke-linejoin="round" stroke-miterlimit="1.5" stroke-width="3" d="M82.862 24.663c.302 4.861 2.678 29.96 4.029 30.668 4.76 2.5 11.364 1.914 14.981.072.837-.426 4.306-30.665 4.021-30.875-6.001-4.43-16.26-4.929-23.031.135" clip-rule="evenodd"/><path stroke="#17171c" stroke-linecap="round" stroke-linejoin="round" stroke-miterlimit="1.5" stroke-width="2" d="M100.84 100.525c.954.31 14.92.248 27.68.154 7.973-.059 15.475-.129 19.035-.129"/><path fill="#fcb4cd" fill-rule="evenodd" stroke="#17171c" stroke-linecap="round" stroke-linejoin="round" stroke-miterlimit="1.5" stroke-width="2" d="M101.072 71.16c.132 2.653-.027 12.257.08 12.258 3.526.032 45.173-.254 45.788-.244.151.003.053-11.577.052-11.925-.001-.277-40.999-.06-45.92-.09" clip-rule="evenodd"/><path stroke="#17171c" stroke-linecap="round" stroke-linejoin="round" stroke-miterlimit="1.5" stroke-width="2" d="M100.753 112.147c1.55.47 37.458.023 46.715.023m-46.7 10.879c1.55.47 37.457.023 46.714.023"/><path fill="#fcb4cd" fill-rule="evenodd" d="M58.536 97.38c-2.266 5.61-4.084 3.366-10.008 6.296-12.437 6.15-8.67 21.104-8.57 21.155.35.178 40.713.373 47.53.449.407.004 3.746-18.697-8.693-22.022-1.326-.354-7.905.249-8.778-6.222" clip-rule="evenodd"/><path stroke="#17171c" stroke-linecap="round" stroke-linejoin="round" stroke-miterlimit="1.5" stroke-width="2.001" d="M58.536 97.38c-2.266 5.61-4.084 3.366-10.008 6.296-12.437 6.15-8.67 21.104-8.57 21.155.35.178 40.713.373 47.53.449.407.004 3.746-18.697-8.693-22.022-1.326-.354-7.905.249-8.778-6.222"/><path stroke="#17171c" stroke-linecap="round" stroke-linejoin="round" stroke-miterlimit="1.5" stroke-width="2.001" d="M57 105.964c2.173 1.464 4.601 2.599 6.903 2.66 2.88.077 5.624-.89 7.364-2.023"/><path stroke="#17171c" stroke-linecap="round" stroke-linejoin="round" stroke-miterlimit="1.5" stroke-width="2" d="M89.787 32.018c.319 2.532 1.588 14.038 1.98 18.17m86.968 25.595c.026 19.988-.216 44.989-.216 59.889m-147.611 23.18c10.713-.17 40.565-.278 47.396-.261m8.266-.27c8.68-.091 17.143-.023 26.678-.142M48.875 69.916c-4.237 3.1-6.554 13.742-1.108 20.697"/><path fill="#97675d" fill-rule="evenodd" stroke="#17171c" stroke-linecap="round" stroke-linejoin="round" stroke-miterlimit="1.5" stroke-width="2.001" d="M63.997 69.983c-2.784.049-8.006.827-10.687 5.477-1.709 2.964-1.871 7.039-1.092 10.198.676 2.74 1.652 5.811 3.162 8.216 2.89 4.606 8.147 7.646 13.166 4.255.736-.498 1.762-1.53 2.355-2.217 4.837-5.593 4.856-13.144 4.151-16.715-.677-3.436-2.156-9.37-11.055-9.214" clip-rule="evenodd"/></g><defs><clipPath id="6lcts_eH-Ka"><path fill="#fff" d="M0 0h192v192H0z"/></clipPath></defs></svg>