<svg xmlns="http://www.w3.org/2000/svg" width="192" height="192" fill="none" viewBox="0 0 192 192"><g stroke-linecap="round" stroke-linejoin="round" stroke-miterlimit="1.5" clip-path="url(#fqq1gUsZ09a)"><path fill="#c71f16" fill-rule="evenodd" stroke="#c71f16" d="M163.102 122.723c-.141-5.128.447-55.196-.616-55.203-1.393-.007-42.229.78-85.412.162-.426-.008.505-25.73-.297-25.112-11.655 8.979-53.749 40.795-53.492 52.165.231 10.277 41.645 43.117 53.992 53.765 1.328 1.144-.079-26.719.782-26.771 1.329-.081 85.043.994 85.043.994" clip-rule="evenodd"/><path stroke="#17171c" stroke-width="2.9959" d="M151.47 109.931c-2.145.013-11.407-.025-22.417-.081m-6.209-.032c-17.872-.095-37.596-.212-38.869-.212"/><path stroke="#17171c" stroke-width="3" d="M47.472 52.379c-10.446 8.67-20.017 17.885-28.958 29.202m33.888-33.225c4.303-3.687 14.793-12.018 17.742-13.984"/><path stroke="#17171c" stroke-width="2.9959" d="M173.157 121.996c.069-16.154.125-41.153.125-52.633"/></g><defs><clipPath id="fqq1gUsZ09a"><path fill="#fff" d="M0 0h192v192H0z"/></clipPath></defs></svg>