<svg xmlns="http://www.w3.org/2000/svg" width="192" height="192" fill="none" viewBox="0 0 192 192"><g stroke-linecap="round" stroke-linejoin="round" stroke-miterlimit="1.5" clip-path="url(#5vnGZ5yfTsa)"><path fill="#3583ff" fill-rule="evenodd" stroke="#3583ff" d="M67.35 87.103c-1.957-3.693-35.033-57.15-41.782-69.93-.134-.252 27.44-.258 38.772-.261.733 0 27.757 47.823 32.162 55.6.156.275-.342 5.684-4.872 5.704-7.915.035-19.159 5.44-24.28 8.887" clip-rule="evenodd"/><path fill="#a1ccfa" fill-rule="evenodd" stroke="#a1ccfa" d="M90.933 78.249c2.852-4.717 39.72-61.756 40.357-62.075.611-.306 38.084.2 38.813.2 1.89 0-39.22 63.39-44.147 72.062-.313.552-14.412-11.041-35.023-10.187" clip-rule="evenodd"/><path fill="#f5e4e2" stroke="#17171c" stroke-width="4.5" d="M95.444 170.396c25.423 0 46.032-20.609 46.032-46.032s-20.609-46.032-46.032-46.032-46.032 20.609-46.032 46.032 20.61 46.032 46.032 46.032"/><path fill="#c71f16" stroke="#17171c" stroke-width="3" d="M95.476 159.762c18.98 0 34.366-15.387 34.366-34.366 0-18.98-15.386-34.366-34.366-34.366S61.11 106.416 61.11 125.396c0 18.979 15.386 34.366 34.366 34.366"/><path stroke="#17171c" stroke-width="3" d="M39.476 132.396c2.172 23.161 18.97 40.774 39 44M153.54 31.643c-6.757 10.014-22.161 33.72-30.854 47.432M15.232 17.924c4.74 6.712 18.24 31.067 27.88 45.404m77.085-47.402c1.731-2.363-23.862 38.741-22.841 37.155m42.62 38.815c6.46 7.459 9.869 15.404 10.5 28m0 5.5c.003 6.214-1.355 13.298-3.5 17.5m-104.966-34.1c-2.213 5.806-3.465 12.91-2.955 17.6m73.029-20.368c2.794 7.621 0 15.477-2.458 20.364"/><path fill="#c71f16" fill-rule="evenodd" stroke="#17171c" stroke-width="4.5" d="M82.066 113.701c-.074-2.578-.586-4.124.7-6.893 3.237-7.217 13.222-6.867 17.732-4.245 5.288 3.074 3.821 12.983 2.601 16.469-3.106 8.87-5.26 12.505-7.496 16.407-.329.575 12.819-.482 12.82.362.001 3.897.243 10.855-.061 10.898-1.271.182-24.981.593-25.312-.349-.306-.867-.564-6.758.021-7.643 6.83-10.335 10.795-15.09 12.534-22.044 1.451-5.807-1.631-6.148-3.418-5.699-.528.132-2.43.86-2.43 3.007 0 1.228-7.692 1.371-7.692-.27" clip-rule="evenodd"/></g><defs><clipPath id="5vnGZ5yfTsa"><path fill="#fff" d="M0 0h192v192H0z"/></clipPath></defs></svg>