<svg xmlns="http://www.w3.org/2000/svg" width="192" height="192" fill="none" viewBox="0 0 192 192"><g clip-path="url(#YD4dywN7a7a)"><g stroke-linecap="round" stroke-linejoin="round" stroke-miterlimit="1.5" clip-path="url(#ltxox3-dfob)"><path fill="#f84303" stroke="#17171c" stroke-width="2.9987" d="M48.371 135.124c21.386 0 38.722-17.336 38.722-38.721 0-21.386-17.336-38.722-38.722-38.722-21.385 0-38.722 17.336-38.722 38.722 0 21.385 17.337 38.721 38.722 38.721"/><path fill="#faa709" stroke="#faa709" stroke-width=".999" d="M144.773 73.342c14.249 0 25.8-11.55 25.8-25.8 0-14.248-11.551-25.799-25.8-25.799-14.248 0-25.799 11.551-25.799 25.8s11.551 25.8 25.799 25.8m.49 96.878c14.249 0 25.8-11.551 25.8-25.8 0-14.248-11.551-25.799-25.8-25.799s-25.8 11.551-25.8 25.799c0 14.249 11.551 25.8 25.8 25.8"/><path stroke="#17171c" stroke-width="2.0018" d="M149.192 36.376c-1.305-11.669-17.413-1.695-5.696 8.201 3.759 3.175 8.028 3.897 8.76 11.175.823 8.2-14.446 10.983-14.877-1.362m12.303 78.864c-1.305-11.669-17.413-1.695-5.696 8.201 3.759 3.175 8.029 3.897 8.76 11.175.823 8.2-14.446 10.984-14.877-1.362"/><path stroke="#17171c" stroke-width="2" d="M158.502 76.93c11.219-4.117 19.224-15.708 19.058-26.782m-66.332 101.287c2.089 11.766 12.098 21.678 23.03 23.455"/><path stroke="#17171c" stroke-width="3.0022" d="M88.489 75.704c11.223-5.68 21.355-10.813 26.371-13.343m-26.876 53.784c11.484 5.132 21.856 9.763 26.981 12.063"/><path stroke="#17171c" stroke-width="2" d="M59.336 52.042c-15.884-5.647-36.16-.946-46.96 15.141m132.073-36.492c.044-1.35.09-3.282.075-4.156m.414 101.035c.044-1.35.09-3.282.075-4.156m-.21-55.049c.019-1.615.023-4.358.016-5.404m.473 102.282c.019-1.615.024-4.358.017-5.404"/><path stroke="#17171c" stroke-width="3" d="M61.855 76.656c-1.212 1.706-25.9 36.492-29.838 42.113"/><path fill="#f5e4e2" stroke="#17171c" stroke-width="3" d="M57.248 119.087a7.714 7.714 0 1 0 0-15.428 7.714 7.714 0 0 0 0 15.428M36.66 92.128a7.714 7.714 0 1 0 0-15.428 7.714 7.714 0 0 0 0 15.428"/></g></g><defs><clipPath id="YD4dywN7a7a"><path fill="#fff" d="M0 0h192v192H0z"/></clipPath><clipPath id="ltxox3-dfob"><path fill="#fff" d="M0 0h192v192H0z"/></clipPath></defs></svg>