<svg xmlns="http://www.w3.org/2000/svg" width="192" height="192" fill="none" viewBox="0 0 192 192"><g stroke-linecap="round" stroke-linejoin="round" stroke-miterlimit="1.5" clip-path="url(#F1a-fku0Kfa)"><path fill="#198f67" fill-rule="evenodd" stroke="#17171c" stroke-width="3" d="M93.12 99.255c-.737.012.298-73.717-.627-73.762a46.4 46.4 0 0 0-6.6.18c-65.62 7.034-88.676 90.733-37.327 132.287 15.393 12.459 36.468 17.59 55.663 14.737 33.782-5.019 64.878-32.903 63.399-72.939-.016-.448-52.941-.874-74.507-.503" clip-rule="evenodd"/><path fill="#faa709" fill-rule="evenodd" stroke="#faa709" d="M108.821 16.28c-1.92-.232-6.314-.469-7.534-.308-.142.018-.002 73.743.756 73.75 26.381.247 74.386.496 74.378.25a92 92 0 0 0-.497-6.943c-5.941-51.979-45.845-64.175-67.103-66.749" clip-rule="evenodd"/><path stroke="#17171c" stroke-width="1.9971" d="M78.854 38.409C64.602 42.152 53.829 51.08 47.396 57.876c-2.351 2.483-6.459 8.328-7.058 9.349-26.396 44.979 12.727 98.57 62.375 91.561"/><path stroke="#17171c" stroke-width="2" d="M110.159 156.697c9.664-2.6 17.598-9.153 22.848-14.347M48.919 23.998c-17.931 9.65-29.34 27.558-33.836 35.407m157.309 78.137c-5.393 11.344-14.063 22.928-24.532 30.207M119.654 27.857c31.719 10.82 44.773 35.683 45.603 55.07M52.826 63.68c5.145-6.882 13.696-15.168 28.034-18.472"/></g><defs><clipPath id="F1a-fku0Kfa"><path fill="#fff" d="M0 0h192v192H0z"/></clipPath></defs></svg>