<svg xmlns="http://www.w3.org/2000/svg" width="192" height="192" fill="none" viewBox="0 0 192 192"><g clip-path="url(#osGTMtYO7Sa)"><g clip-path="url(#PR1FXnjjINb)"><path stroke="#17171c" stroke-linecap="round" stroke-linejoin="round" stroke-miterlimit="1.5" stroke-width="2" d="M13.675 126.775c-.388-.094 29.74 31.5 30.16 32.34m126.29-70.702c.08-.126-39.431 50.544-39.231 50.193m-82.342 25.702c2.307 2.844 5.277 5.818 8.395 9.179m-3.908-99.924c-.484.405 1.294-1.142 1.335-1.182.15-.15 40.007-36.922 39.802-36.922"/><path fill="#faa709" fill-rule="evenodd" stroke="#faa709" stroke-linecap="round" stroke-linejoin="round" stroke-miterlimit="1.5" d="M140.153 29.58c7.881-1.253 16.136-1.515 19.16.934 7.431 6.018 3.762 46.031 3.144 47.886-.961 2.882-67.753 89.413-82.67 105.152-1.329 1.402-62.876-64.337-61.53-64.337.455-2.472 66.856-61.705 86.08-79.257.471-.43 20.01-7.865 35.816-10.378m2.579 9.471c-19.155 8.35 5.346 22.774 10.447 9.585.919-2.377-.185-6.769-2.61-8.719-1.492-1.199-5.709-1.794-7.837-.866" clip-rule="evenodd"/><path stroke="#17171c" stroke-linecap="round" stroke-linejoin="round" stroke-miterlimit="1.5" stroke-width="3" d="M62.54 110.105c-14.709-12.31-22.482 17.646 2.525 16.115 8.023-.491 13.88-4.456 22.956 3.316 10.226 8.757-4.67 29.274-19.109 15.178m1.862-42.972c-6.173-8.47 4.327-17.064 11.29-11.678 11.927 9.226 31.124 31.253 30.974 30.954"/><path stroke="#17171c" stroke-linecap="round" stroke-linejoin="round" stroke-miterlimit="1.5" stroke-width="3" d="M100.695 108.156c-11.503 1.092-14.223 14.25-6.9 19.538 10.424 7.528 17.377-5.9 17.442-8.19M82.258 77.34c6.418 7.01 20.538 20.81 29.993 29.554 9.979 9.227 18.088-1.309 5.551-11.907M112.9 83.513c2.623-8.61 3.598-31.129-5.38-30.153-10.52 1.144-3.842 33.227 22.986 40.776 11.801 3.32 6.343-10.408 3.24-14.625"/><path fill="#fcb4cd" fill-rule="evenodd" stroke="#17171c" stroke-linecap="round" stroke-linejoin="round" stroke-miterlimit="1.5" stroke-width="2.0037" d="M153.123 9.792c12.273 0 23.183 8.136 23.183 19.686s-11.168 19.839-23.439 19.839c-12.273 0-21.352-7.378-21.352-18.929s9.336-20.596 21.608-20.596m-.787 5.285c7.978-.91 17.113 8.52 17.139 14.294.048 11.063-9.59 13.12-16.285 13.763-6.298.606-14.573-.184-15.528-13.134-.426-5.76 3.448-13.642 14.674-14.923" clip-rule="evenodd"/><path fill="#faa709" fill-rule="evenodd" d="M150.009 39.448c-6.323-4.869 9.147-9.761 10.997-6.336 1.849 3.423 2.265 7.779 2.685 15.724.706 13.387-15.373 8.15-11.936 2.481 2.812-4.638.152-10.407-1.746-11.869" clip-rule="evenodd"/></g></g><defs><clipPath id="osGTMtYO7Sa"><path fill="#fff" d="M0 0h192v192H0z"/></clipPath><clipPath id="PR1FXnjjINb"><path fill="#fff" d="M0 0h192v192H0z"/></clipPath></defs></svg>