<svg xmlns="http://www.w3.org/2000/svg" width="192" height="192" fill="none" viewBox="0 0 192 192"><g clip-path="url(#Hz-yPIG-GRa)"><g stroke-linecap="round" stroke-linejoin="round" stroke-miterlimit="1.5" clip-path="url(#7SbmszfxD9b)"><path fill="#faa709" fill-rule="evenodd" stroke="#17171c" stroke-width="3" d="M97.508 15.913c-8.8 14.559-17.01 55.15-20.804 58.944-1.453 1.453-53.698-2.102-55.477 1.733-.302.652 37.565 23.696 45.075 31.206 1.716 1.716-29.264 58.684-24.271 64.145.26.284 9.625-.728 55.477-41.608 2.098-1.868 46.233 41.986 53.743 39.874 4.067-1.144-24.816-63.33-24.271-64.145 1.858-2.787 43.684-31.032 43.341-31.205-2.691-1.346-50.612 2.541-52.009 0-4.265-7.757-13.696-46.653-20.804-58.944" clip-rule="evenodd"/><path fill="#f5e4e2" fill-rule="evenodd" stroke="#f5e4e2" d="M96.726 51.076c-4.834 7.998-9.345 30.297-11.429 32.38-.798.799-29.498-1.153-30.475.953-.166.358 20.636 13.017 24.761 17.143.943.943-16.076 32.237-13.333 35.237.143.156 5.288-.4 30.476-22.856 1.152-1.027 25.397 23.064 29.523 21.904 2.234-.629-13.632-34.79-13.333-35.238 1.021-1.531 23.998-17.047 23.809-17.142-1.478-.74-27.803 1.396-28.571 0-2.343-4.261-7.524-25.628-11.428-32.38" clip-rule="evenodd"/><path stroke="#17171c" stroke-width="2" d="M109.077 15.861c4.391 12.141 9.962 26.74 13.416 35.4m-16.68 99.677c12.6 10.369 22.541 17.164 33.467 25.386M36.42 147.266c4.218-9.784 11.35-24.254 15.828-33.973m72.627-55.814c1.168 2.51 2.714 6.462 3.627 9.376M30.744 172.503c-2.049-4.876.343-14.261 2.712-17.679"/></g></g><defs><clipPath id="Hz-yPIG-GRa"><path fill="#fff" d="M0 0h192v192H0z"/></clipPath><clipPath id="7SbmszfxD9b"><path fill="#fff" d="M0 0h192v192H0z"/></clipPath></defs></svg>