<svg xmlns="http://www.w3.org/2000/svg" width="192" height="192" fill="none" viewBox="0 0 192 192"><g stroke-linecap="round" stroke-linejoin="round" stroke-miterlimit="1.5" clip-path="url(#HIMggnd1Aqa)"><path fill="#a1ccfa" fill-rule="evenodd" stroke="#a1ccfa" stroke-width="4.4969" d="M61.183 155.47c13.58-.006 91.522.195 93.054.245 14.147.456 28.031-8.819 28.989-27.346 1.346-26.015-21.887-33.815-21.86-33.857 14.378-22.039-3.662-66.12-45.41-66.626-46.286-.56-55.807 32.923-55.918 32.923-35.082.286-51.033 24.764-50.743 51.56.226 20.72 21.273 43.114 51.888 43.101" clip-rule="evenodd"/><path stroke="#17171c" stroke-width="3" d="M120.465 38.387c15.465 1.667 32.235 13.962 31.083 37.783M46.69 167.848c19.943-.015 32.059-.23 51.745-.23m12.635.136c7.988.053 16.71-.054 23.188-.054M95.213 19.538c-18.555 2.334-33.722 13.304-40.4 28.401"/><path stroke="#17171c" stroke-width="3.0002" d="M59.181 60.374c5.522.49 8.595 2.112 11.476 5.1"/><path fill="#c71f16" stroke="#17171c" stroke-width="4.4935" d="M94.34 142.448c-.468.467-1.155-1.009-1.304-1.157-1.03-1.031-17.858-30.395-24.522-42.048l10.961-9.525c3.921 6.535 10.343 18.041 10.668 17.716 1.063-1.063 17.735-41.96 23.873-53.678l17.676 6.558c-9.114 17.514-25.317 49.033-29.83 61.445-1.735 4.773-6.67 19.836-7.523 20.689"/><path stroke="#17171c" stroke-width="3.0042" d="M63.678 113.161c2.296 3.843 15.871 27.24 18.129 30.776"/></g><defs><clipPath id="HIMggnd1Aqa"><path fill="#fff" d="M0 0h192v192H0z"/></clipPath></defs></svg>