<svg xmlns="http://www.w3.org/2000/svg" width="192" height="192" fill="none" viewBox="0 0 192 192"><g stroke-linecap="round" stroke-linejoin="round" stroke-miterlimit="1.5"><path fill="#c71f16" fill-rule="evenodd" stroke="#c71f16" d="M127.201 159.567c-5.128-.141-55.196.447-55.203-.616-.008-1.393.779-42.229.161-85.413-.007-.426-25.729.505-25.111-.296 8.978-11.656 40.795-53.75 52.165-53.493 10.277.232 43.117 41.645 53.765 53.993 1.144 1.328-26.719-.08-26.771.782-.082 1.328.994 85.043.994 85.043" clip-rule="evenodd"/><path stroke="#17171c" stroke-width="2.9959" d="M114.409 147.934c.013-2.145-.025-11.407-.081-22.417m-.032-6.209c-.095-17.873-.212-37.596-.212-38.869"/><path stroke="#17171c" stroke-width="3" d="M56.857 43.936c8.67-10.445 17.885-20.017 29.202-28.958M52.834 48.866c-3.687 4.303-12.018 14.793-13.984 17.742"/><path stroke="#17171c" stroke-width="2.9959" d="M126.474 169.62c-16.154.07-41.153.126-52.633.126"/></g></svg>