<svg xmlns="http://www.w3.org/2000/svg" width="192" height="192" fill="none" viewBox="0 0 192 192"><g clip-path="url(#3hVsYUtkkHa)"><path fill="#97675d" fill-rule="evenodd" stroke="#97675d" stroke-linecap="round" stroke-linejoin="round" stroke-miterlimit="1.5" d="M38.223 26.4c-16.161-.164-18.126 1.883-18.254 16.104-.208 23.388.156 69.579.457 93.351.205 16.075 4.513 15.472 17.957 15.627 27.931.321 81.833.409 111.013-.372 16.78-.451 19.874-1.798 20.21-15.265.426-17.052-.72-66.835-1.006-81.65-.053-2.757-1.964-4.738-5.183-4.77-19.416-.197-87.94-.307-91.382-.372-.255-.006-8.436-22.438-11.5-22.47-8.497-.09-16.286-.121-22.312-.183" clip-rule="evenodd"/><path fill="#c71f16" fill-rule="evenodd" d="M163.76 65.565c-16.764-.148-111.818-.01-137.47.223-4.057.037-6.368 3.883-6.354 7.047.067 15.75.276 50.111.49 64.978.204 14.09 4.512 13.562 17.957 13.698 27.931.281 81.833.358 111.012-.327 16.781-.395 19.875-1.575 20.211-13.38.426-14.948-.377-55.07-.662-68.057-.054-2.417-1.966-4.153-5.184-4.182" clip-rule="evenodd"/><path fill="#3583ff" stroke="#17171c" stroke-linecap="round" stroke-linejoin="round" stroke-miterlimit="1.5" stroke-width="4.5" d="M62.886 151.145c-.138-.071-5.377-20.866 11.917-29.418 8.213-4.061 10.75-.974 13.888-8.68l15.996-.554c1.213 8.998 10.363 8.16 12.206 8.652 16.841 4.502 12.946 29.077 12.202 30.373H63.026z"/><path stroke="#17171c" stroke-linecap="round" stroke-linejoin="round" stroke-miterlimit="1.5" stroke-width="3" d="M86.606 122.2c3.023 2.037 6.4 3.614 9.6 3.7 4.005.107 7.822-1.238 10.241-2.814m-29.608 5.035c-.157-.074-.711.514-.82.626-.965.976-1.962 2.082-2.756 3.208-2.71 3.845-3.985 8.933-3.985 13.605"/><path fill="#f5e4e2" fill-rule="evenodd" stroke="#f5e4e2" stroke-linecap="round" stroke-linejoin="round" stroke-miterlimit="1.5" d="M96.314 74.874c-3.872.068-11.133 1.15-14.861 7.615-2.377 4.123-2.603 9.789-1.52 14.182.94 3.81 2.298 8.082 4.398 11.426 4.02 6.404 11.33 10.631 18.308 5.916 1.024-.693 2.45-2.128 3.276-3.082 6.725-7.778 6.752-18.279 5.772-23.245-.942-4.777-2.998-13.03-15.373-12.812" clip-rule="evenodd"/><path stroke="#17171c" stroke-linecap="round" stroke-linejoin="round" stroke-miterlimit="1.5" stroke-width="3" d="M179.297 79.799c.026 19.988-.216 44.989-.216 59.889m-146.564 21.71c10.713-.17 40.565-.278 47.396-.261m8.265-.27c8.681-.091 17.143-.023 26.678-.142m-34.975-120.6c5.421.055 48.358.371 63.182.371"/><path stroke="#17171c" stroke-linecap="round" stroke-linejoin="round" stroke-miterlimit="1.5" stroke-width="4.5" d="M163.76 65.565c-16.764-.148-111.818-.01-137.47.223-4.057.037-6.368 3.883-6.354 7.047.067 15.75.276 50.111.49 64.978.204 14.09 4.512 13.562 17.957 13.698 27.931.281 81.833.358 111.012-.327 16.781-.395 19.875-1.575 20.211-13.38.426-14.948-.377-55.07-.662-68.057-.054-2.417-1.966-4.153-5.184-4.182" clip-rule="evenodd"/></g><defs><clipPath id="3hVsYUtkkHa"><path fill="#fff" d="M0 0h192v192H0z"/></clipPath></defs></svg>