<svg xmlns="http://www.w3.org/2000/svg" width="192" height="192" fill="none" viewBox="0 0 192 192"><g clip-path="url(#DwbR0BOICra)"><path fill="#a1ccfa" fill-rule="evenodd" stroke="#a1ccfa" stroke-linecap="round" stroke-linejoin="round" stroke-miterlimit="1.5" stroke-width="4.4969" d="M61.183 155.47c13.58-.006 91.522.195 93.054.245 14.147.456 28.031-8.819 28.989-27.346 1.346-26.015-21.887-33.815-21.86-33.857 14.378-22.039-3.662-66.12-45.41-66.626-46.286-.56-55.807 32.923-55.918 32.923-35.082.286-51.033 24.764-50.743 51.56.226 20.72 21.273 43.114 51.888 43.101" clip-rule="evenodd"/><path stroke="#17171c" stroke-linecap="round" stroke-linejoin="round" stroke-miterlimit="1.5" stroke-width="3" d="M120.465 38.387c15.465 1.667 32.235 13.962 31.083 37.783M46.69 167.848c19.943-.015 32.059-.23 51.745-.23m12.635.136c7.988.053 16.71-.054 23.188-.054M95.213 19.538c-18.555 2.334-33.722 13.304-40.4 28.401"/><path stroke="#17171c" stroke-linecap="round" stroke-linejoin="round" stroke-miterlimit="1.5" stroke-width="3.0002" d="M59.181 60.374c5.522.49 8.595 2.112 11.476 5.1"/><path fill="#c71f16" d="M58.187 154.919c-.18-.091-6.992-27.134 15.497-38.254 10.68-5.281 13.98-1.268 18.06-11.289l20.8-.719c1.579 11.701 13.476 10.61 15.874 11.251 21.9 5.854 16.754 38.068 15.787 39.754l-85.836-.257z"/><path stroke="#c71f16" stroke-linecap="round" stroke-linejoin="round" stroke-miterlimit="1.5" stroke-width="4.5" d="M58.187 154.919c-.18-.091-6.992-27.134 15.497-38.254 10.68-5.281 13.98-1.268 18.06-11.289l20.8-.719c1.579 11.701 13.476 10.61 15.874 11.251 21.9 5.854 16.754 38.068 15.787 39.754m-86.018-.743.183.486 85.835.257m-86.018-.743 86.018.743"/><path stroke="#17171c" stroke-linecap="round" stroke-linejoin="round" stroke-miterlimit="1.5" stroke-width="4.5" d="M112.544 104.657c1.579 11.701 13.476 10.61 15.874 11.251 21.9 5.854 16.754 38.068 15.787 39.754m-52.461-50.286c-4.08 10.021-7.38 6.008-18.06 11.289-22.489 11.12-15.677 38.163-15.497 38.254l.183.486"/><path stroke="#17171c" stroke-linecap="round" stroke-linejoin="round" stroke-miterlimit="1.5" stroke-width="3" d="M89.034 116.32c3.93 2.648 8.321 4.699 12.484 4.81 5.207.14 10.17-1.609 13.316-3.658m-40.761 5.43c-.215-.102-.978.708-1.13.861-1.326 1.345-2.699 2.866-3.792 4.416-3.729 5.293-5.485 12.297-5.485 18.727"/><path fill="#f5e4e2" fill-rule="evenodd" stroke="#17171c" stroke-linecap="round" stroke-linejoin="round" stroke-miterlimit="1.5" stroke-width="4.5" d="M101.658 55.736c-5.035.089-14.477 1.496-19.325 9.904-3.091 5.36-3.385 12.728-1.976 18.44 1.222 4.956 2.988 10.51 5.718 14.86 5.228 8.327 14.733 13.825 23.807 7.693 1.333-.901 3.187-2.767 4.26-4.008 8.746-10.115 8.782-23.77 7.507-30.227-1.225-6.213-3.899-16.944-19.991-16.662" clip-rule="evenodd"/></g><defs><clipPath id="DwbR0BOICra"><path fill="#fff" d="M0 0h192v192H0z"/></clipPath></defs></svg>