<svg xmlns="http://www.w3.org/2000/svg" width="192" height="192" fill="none" viewBox="0 0 192 192"><g clip-path="url(#z97Fui0L7ja)"><g clip-path="url(#jJIcDHXT3Nb)"><path fill="#c71f16" fill-rule="evenodd" stroke="#c71f16" stroke-linecap="round" stroke-linejoin="round" stroke-miterlimit="1.5" d="M127.836 64.735c.037.001-5.742-3.124-5.81-3.949-.245-2.933-.958-9.609-.736-9.609 2.022 0 6.501-.068 6.496.045-.009.257.048 8.723.05 13.513m.147 60.385c.033-.001-5.672 3.283-5.73 3.908-.264 2.889-1.288 11.018-1.097 11.017 2.378-.012 6.678-.015 6.674-.12-.01-.256.151-10.015.153-14.805M64.096 65.864c-.032.001 6.466-3.82 6.468-4.534.008-2.89.217-10.203-.005-10.202-2.05.008-6.778-.03-6.774.084.01.256.313 9.862.311 14.652m7.417 74.128c-1.358-.027-6.986.129-6.981-.001.009-.243-.257-10.08-.287-15.19-.001-.201 3.863 2.525 6.174 4.085.986.666 1.094 11.182 1.094 11.106" clip-rule="evenodd"/><path fill="#c71f16" fill-rule="evenodd" d="M140.394 92.589c.112-.296 4.89-.006 5.598.348.448.224.39 7.478-.463 8.332-.221.221-4.122.014-5.447.014" clip-rule="evenodd"/><path stroke="#c71f16" stroke-linecap="round" stroke-linejoin="round" stroke-miterlimit="1.5" d="M140.394 92.589c.112-.296 4.89-.006 5.598.348.448.224.39 7.478-.463 8.332-.221.221-4.122.014-5.447.014"/><path fill="#c71f16" fill-rule="evenodd" d="M69.689 60.88c3.247-9.662 4.006-41.212 5.486-41.224 7.87-.066 37.151-.088 41.701-.056.6.004 2.198 30.492 5.923 41.2" clip-rule="evenodd"/><path stroke="#17171c" stroke-linecap="round" stroke-linejoin="round" stroke-miterlimit="1.5" stroke-width="4.5" d="M69.689 60.88c3.247-9.662 4.006-41.212 5.486-41.224 7.87-.066 37.151-.088 41.701-.056.6.004 2.198 30.492 5.923 41.2"/><path fill="#c71f16" fill-rule="evenodd" d="M69.835 128.975c3.248 9.662 4.006 41.212 5.486 41.224 7.87.066 37.151.088 41.702.056.6-.004 2.197-30.491 5.922-41.2" clip-rule="evenodd"/><path stroke="#17171c" stroke-linecap="round" stroke-linejoin="round" stroke-miterlimit="1.5" stroke-width="4.5" d="M69.835 128.975c3.248 9.662 4.006 41.212 5.486 41.224 7.87.066 37.151.088 41.702.056.6-.004 2.197-30.491 5.922-41.2"/><path fill="#c71f16" fill-rule="evenodd" stroke="#17171c" stroke-linecap="round" stroke-linejoin="round" stroke-miterlimit="1.5" stroke-width="4.5006" d="M100.102 52.267c-2.372-.287-7.365-.163-8.187-.074-38.008 4.074-51.363 52.555-21.62 76.624 8.916 7.217 21.123 10.189 32.241 8.536 20.721-3.078 39.34-20.997 36.434-46.423-3.441-30.108-26.554-37.172-38.868-38.663" clip-rule="evenodd"/><path fill="#f5e4e2" fill-rule="evenodd" stroke="#f5e4e2" stroke-linecap="round" stroke-linejoin="round" stroke-miterlimit="1.5" stroke-width="1.503" d="M93.909 64.543c-28.49 2.608-37.752 37.27-16.032 54.846 6.374 5.159 15.1 7.284 23.048 6.102 14.812-2.2 28.121-15.009 26.044-33.185-2.56-22.395-20.346-26.955-28.816-27.748-1.238-.116-3.481-.016-4.244-.015" clip-rule="evenodd"/><path stroke="#17171c" stroke-linecap="round" stroke-linejoin="round" stroke-miterlimit="1.5" stroke-width="3" d="M74.753 25.054c8.476.08 32.654.1 42.182.141M74.9 164.801c8.476-.08 32.654-.1 42.182-.141M96.547 64.565c.044 1.631.06 4.69.074 6.4m.032 54.794c.022-1.88.055-4.631.055-5.574"/><path stroke="#17171c" stroke-linecap="round" stroke-linejoin="round" stroke-miterlimit="1.5" stroke-width="3.0017" d="M120.995 95.225c.81-.022 4.794.056 6.084.025"/><path stroke="#17171c" stroke-linecap="round" stroke-linejoin="round" stroke-miterlimit="1.5" stroke-width="3" d="m66.161 95.526 4.908.001"/><path stroke="#17171c" stroke-linecap="round" stroke-linejoin="round" stroke-miterlimit="1.5" stroke-width="4.5026" d="M96.437 96.504c-3.645-3.768-7.675-9.556-11.524-14.149"/><path stroke="#17171c" stroke-linecap="round" stroke-linejoin="round" stroke-miterlimit="1.5" stroke-width="4.5" d="M107.189 89.968c-2.547 1.516-8.029 4.907-10.752 6.536"/><path stroke="#17171c" stroke-linecap="round" stroke-linejoin="round" stroke-miterlimit="1.5" stroke-width="2.9975" d="M52.914 70.553c-6.016 10.145-6.329 22.44-6.216 27.678m97.48 10.688c-.708 5.808-2.503 11.665-9.302 17.463"/><path stroke="#17171c" stroke-linecap="round" stroke-linejoin="round" stroke-miterlimit="1.5" stroke-width="3" d="M125.977 159.002c-1.018 4.248-2.557 18.388-3.412 18.396-2.717.024-30.615.287-38.852.287M66.24 29.701c1.531-5.316 2.187-14.383 2.284-16.235.024-.44 25.055-.372 34.505-.372m7.074 18.75c.19 3.347 1.606 12.57 2.253 15.16m.17 94.859c-1.216 5.246-1.91 9.452-2.031 15.016"/></g></g><defs><clipPath id="z97Fui0L7ja"><path fill="#fff" d="M0 0h192v192H0z"/></clipPath><clipPath id="jJIcDHXT3Nb"><path fill="#fff" d="M0 0h192v192H0z"/></clipPath></defs></svg>